M48
; DRILL file {KiCad 9.0.1} date 2025-04-27T01:09:33-0400
; FORMAT={-:-/ absolute / metric / decimal}
; #@! TF.CreationDate,2025-04-27T01:09:33-04:00
; #@! TF.GenerationSoftware,Kicad,Pcbnew,9.0.1
; #@! TF.FileFunction,Plated,1,2,PTH
FMAT,2
METRIC
; #@! TA.AperFunction,Plated,PTH,ViaDrill
T1C0.300
; #@! TA.AperFunction,Plated,PTH,ComponentDrill
T2C0.650
; #@! TA.AperFunction,Plated,PTH,ComponentDrill
T3C0.690
; #@! TA.AperFunction,Plated,PTH,ComponentDrill
T4C0.800
; #@! TA.AperFunction,Plated,PTH,ComponentDrill
T5C1.000
%
G90
G05
T1
X80.264Y-111.76
X84.618Y-97.899
X84.618Y-104.899
X86.3Y-100.944
X86.8Y-102.944
X88.9Y-105.918
X89.916Y-102.616
X92.202Y-90.254
X92.584Y-117.602
X94.257Y-111.021
X97.536Y-107.696
X100.09Y-91.49
X102.87Y-98.552
X109.8Y-99.944
X112.3Y-97.944
X115.8Y-119.619
X115.8Y-121.444
X116.125Y-109.444
X116.8Y-105.943
X117.3Y-99.844
X118.8Y-105.444
X118.8Y-108.944
X118.872Y-120.396
X119.3Y-129.444
X119.634Y-125.984
X123.952Y-127.508
X124.03Y-129.449
X132.3Y-117.944
X132.3Y-119.194
X132.3Y-120.444
X132.334Y-95.946
X133.3Y-106.944
X133.55Y-117.944
X133.55Y-119.194
X133.55Y-120.444
X134.8Y-117.944
X134.8Y-119.194
X134.8Y-120.444
X137.668Y-105.41
X139.27Y-111.949
X139.27Y-129.449
T2
X79.519Y-95.479
X79.519Y-107.319
X108.22Y-91.948
X110.76Y-89.408
X110.76Y-94.488
X113.3Y-91.948
T3
X123.8Y-91.944
X126.34Y-89.404
X126.34Y-94.484
X128.88Y-91.944
T4
X104.3Y-115.944
X110.8Y-115.944
T5
X80.8Y-114.444
X80.8Y-120.944
X85.3Y-114.444
X85.3Y-120.944
X95.13Y-127.194
X95.13Y-129.734
X97.67Y-127.194
X97.67Y-129.734
X100.21Y-127.194
X100.21Y-129.734
X102.75Y-127.194
X102.75Y-129.734
X105.29Y-127.194
X105.29Y-129.734
X107.83Y-127.194
X107.83Y-129.734
X110.37Y-127.194
X110.37Y-129.734
X112.91Y-127.194
X112.91Y-129.734
X115.45Y-127.194
X115.45Y-129.734
T2
G00X84.138Y-96.749
M15
G01X83.538Y-96.749
M16
G05
G00X84.138Y-106.049
M15
G01X83.538Y-106.049
M16
G05
M30
