%TF.GenerationSoftware,KiCad,Pcbnew,9.0.1*%
%TF.CreationDate,2025-04-27T01:09:13-04:00*%
%TF.ProjectId,smart_stove_guard,736d6172-745f-4737-946f-76655f677561,rev?*%
%TF.SameCoordinates,Original*%
%TF.FileFunction,Paste,Top*%
%TF.FilePolarity,Positive*%
%FSLAX46Y46*%
G04 Gerber Fmt 4.6, Leading zero omitted, Abs format (unit mm)*
G04 Created by KiCad (PCBNEW 9.0.1) date 2025-04-27 01:09:13*
%MOMM*%
%LPD*%
G01*
G04 APERTURE LIST*
G04 Aperture macros list*
%AMRoundRect*
0 Rectangle with rounded corners*
0 $1 Rounding radius*
0 $2 $3 $4 $5 $6 $7 $8 $9 X,Y pos of 4 corners*
0 Add a 4 corners polygon primitive as box body*
4,1,4,$2,$3,$4,$5,$6,$7,$8,$9,$2,$3,0*
0 Add four circle primitives for the rounded corners*
1,1,$1+$1,$2,$3*
1,1,$1+$1,$4,$5*
1,1,$1+$1,$6,$7*
1,1,$1+$1,$8,$9*
0 Add four rect primitives between the rounded corners*
20,1,$1+$1,$2,$3,$4,$5,0*
20,1,$1+$1,$4,$5,$6,$7,0*
20,1,$1+$1,$6,$7,$8,$9,0*
20,1,$1+$1,$8,$9,$2,$3,0*%
G04 Aperture macros list end*
%ADD10R,0.812800X0.812800*%
%ADD11R,0.889000X1.498600*%
%ADD12R,1.400000X0.300000*%
%ADD13R,1.400000X0.800000*%
%ADD14RoundRect,0.250000X0.503814X0.132583X0.132583X0.503814X-0.503814X-0.132583X-0.132583X-0.503814X0*%
%ADD15RoundRect,0.250000X-0.445000X0.545000X-0.445000X-0.545000X0.445000X-0.545000X0.445000X0.545000X0*%
%ADD16RoundRect,0.250000X0.445000X-0.545000X0.445000X0.545000X-0.445000X0.545000X-0.445000X-0.545000X0*%
%ADD17RoundRect,0.250000X-0.132583X0.503814X-0.503814X0.132583X0.132583X-0.503814X0.503814X-0.132583X0*%
%ADD18RoundRect,0.250000X0.450000X-0.262500X0.450000X0.262500X-0.450000X0.262500X-0.450000X-0.262500X0*%
%ADD19RoundRect,0.250000X0.250000X0.475000X-0.250000X0.475000X-0.250000X-0.475000X0.250000X-0.475000X0*%
%ADD20RoundRect,0.250000X-0.262500X-0.450000X0.262500X-0.450000X0.262500X0.450000X-0.262500X0.450000X0*%
%ADD21RoundRect,0.250000X-0.503814X-0.132583X-0.132583X-0.503814X0.503814X0.132583X0.132583X0.503814X0*%
%ADD22RoundRect,0.250000X-0.475000X0.250000X-0.475000X-0.250000X0.475000X-0.250000X0.475000X0.250000X0*%
%ADD23RoundRect,0.250000X0.475000X-0.250000X0.475000X0.250000X-0.475000X0.250000X-0.475000X-0.250000X0*%
%ADD24R,0.800000X0.800000*%
%ADD25RoundRect,0.250000X0.262500X0.450000X-0.262500X0.450000X-0.262500X-0.450000X0.262500X-0.450000X0*%
%ADD26RoundRect,0.250000X-0.450000X0.262500X-0.450000X-0.262500X0.450000X-0.262500X0.450000X0.262500X0*%
%ADD27RoundRect,0.375000X-0.375000X0.625000X-0.375000X-0.625000X0.375000X-0.625000X0.375000X0.625000X0*%
%ADD28RoundRect,0.500000X-1.400000X0.500000X-1.400000X-0.500000X1.400000X-0.500000X1.400000X0.500000X0*%
G04 APERTURE END LIST*
D10*
%TO.C,U1*%
X134800000Y-119194300D03*
X134800000Y-120444300D03*
X133550000Y-120444300D03*
X132300000Y-120444300D03*
X132300000Y-119194300D03*
X132300000Y-117944300D03*
X133550000Y-117944300D03*
X134800000Y-117944300D03*
X133550000Y-119194300D03*
D11*
X139270000Y-129449300D03*
X138000000Y-129449300D03*
X136730000Y-129449300D03*
X135460000Y-129449300D03*
X134190000Y-129449300D03*
X132920000Y-129449300D03*
X131650000Y-129449300D03*
X130380000Y-129449300D03*
X129110000Y-129449300D03*
X127840000Y-129449300D03*
X126570000Y-129449300D03*
X125300000Y-129449300D03*
X124030000Y-129449300D03*
X122760000Y-129449300D03*
X122760000Y-111949300D03*
X124030000Y-111949300D03*
X125300000Y-111949300D03*
X126570000Y-111949300D03*
X127840000Y-111949300D03*
X129110000Y-111949300D03*
X130380000Y-111949300D03*
X131650000Y-111949300D03*
X132920000Y-111949300D03*
X134190000Y-111949300D03*
X135460000Y-111949300D03*
X136730000Y-111949300D03*
X138000000Y-111949300D03*
X139270000Y-111949300D03*
%TD*%
D12*
%TO.C,J1*%
X84618500Y-99648750D03*
X84618500Y-100648750D03*
X84618500Y-102148750D03*
X84618500Y-103148750D03*
D13*
X84618500Y-104898750D03*
X84618500Y-103898750D03*
D12*
X84618500Y-102648750D03*
X84618500Y-101648750D03*
X84618500Y-101148750D03*
X84618500Y-100148750D03*
D13*
X84618500Y-98898750D03*
X84618500Y-97898750D03*
%TD*%
D14*
%TO.C,R9*%
X89916000Y-102616000D03*
X88625530Y-101325530D03*
%TD*%
D15*
%TO.C,C2*%
X102870000Y-95672000D03*
X102870000Y-98552000D03*
%TD*%
D16*
%TO.C,C1*%
X92202000Y-93134000D03*
X92202000Y-90254000D03*
%TD*%
D17*
%TO.C,R8*%
X127782470Y-104627530D03*
X126492000Y-105918000D03*
%TD*%
%TO.C,R7*%
X128778000Y-106680000D03*
X130068470Y-105389530D03*
%TD*%
D18*
%TO.C,R14*%
X119300000Y-129444300D03*
X119300000Y-131269300D03*
%TD*%
%TO.C,R3*%
X114800000Y-98019300D03*
X114800000Y-99844300D03*
%TD*%
D19*
%TO.C,C7*%
X87254000Y-90944300D03*
X89154000Y-90944300D03*
%TD*%
D20*
%TO.C,R1*%
X135200000Y-104444300D03*
X133375000Y-104444300D03*
%TD*%
D21*
%TO.C,R2*%
X88900000Y-105918000D03*
X87609530Y-104627530D03*
%TD*%
D20*
%TO.C,R10*%
X94300000Y-119444300D03*
X92475000Y-119444300D03*
%TD*%
D19*
%TO.C,C6*%
X87254000Y-93218000D03*
X89154000Y-93218000D03*
%TD*%
D22*
%TO.C,C3*%
X112300000Y-99844300D03*
X112300000Y-97944300D03*
%TD*%
D23*
%TO.C,C8*%
X137668000Y-105410000D03*
X137668000Y-107310000D03*
%TD*%
%TO.C,C4*%
X132334000Y-94046000D03*
X132334000Y-95946000D03*
%TD*%
D19*
%TO.C,C5*%
X133300000Y-106944300D03*
X135200000Y-106944300D03*
%TD*%
D24*
%TO.C,D1*%
X92584000Y-117602000D03*
X94234000Y-117602000D03*
%TD*%
D18*
%TO.C,R5*%
X107300000Y-98119300D03*
X107300000Y-99944300D03*
%TD*%
D25*
%TO.C,R11*%
X114300000Y-109444300D03*
X116125000Y-109444300D03*
%TD*%
D18*
%TO.C,R13*%
X115800000Y-119619300D03*
X115800000Y-121444300D03*
%TD*%
D25*
%TO.C,R12*%
X80264000Y-111760000D03*
X82089000Y-111760000D03*
%TD*%
D26*
%TO.C,R4*%
X117300000Y-99844300D03*
X117300000Y-98019300D03*
%TD*%
%TO.C,R6*%
X109800000Y-99944300D03*
X109800000Y-98119300D03*
%TD*%
D27*
%TO.C,U3*%
X95490000Y-91490000D03*
D28*
X97790000Y-97790000D03*
D27*
X97790000Y-91490000D03*
X100090000Y-91490000D03*
%TD*%
M02*
