%TF.GenerationSoftware,KiCad,Pcbnew,9.0.1*%
%TF.CreationDate,2025-04-27T01:07:48-04:00*%
%TF.ProjectId,smart_stove_guard,736d6172-745f-4737-946f-76655f677561,rev?*%
%TF.SameCoordinates,Original*%
%TF.FileFunction,Profile,NP*%
%FSLAX46Y46*%
G04 Gerber Fmt 4.6, Leading zero omitted, Abs format (unit mm)*
G04 Created by KiCad (PCBNEW 9.0.1) date 2025-04-27 01:07:48*
%MOMM*%
%LPD*%
G01*
G04 APERTURE LIST*
%TA.AperFunction,Profile*%
%ADD10C,0.010000*%
%TD*%
G04 APERTURE END LIST*
D10*
X78000000Y-106477250D02*
X78000000Y-135890000D01*
X148082000Y-135890000D02*
X78000000Y-135890000D01*
X148082000Y-85000000D02*
X148082000Y-135890000D01*
X78000000Y-85000000D02*
X148082000Y-85000000D01*
X78000000Y-96320250D02*
X78000000Y-85000000D01*
X78158500Y-106318750D02*
X78000000Y-106477250D01*
X78158500Y-96478750D02*
X78000000Y-96320250D01*
%TO.C,J1*%
X82668500Y-105818750D02*
G75*
G02*
X82518500Y-105968750I-150000J0D01*
G01*
X82518500Y-96828750D02*
G75*
G02*
X82668500Y-96978750I0J-150000D01*
G01*
X79968500Y-106993750D02*
G75*
G02*
X79968500Y-107643750I0J-325000D01*
G01*
X79968500Y-95153750D02*
G75*
G02*
X79968500Y-95803750I0J-325000D01*
G01*
X79068500Y-107643750D02*
G75*
G02*
X79068500Y-106993750I0J325000D01*
G01*
X79068500Y-95803750D02*
G75*
G02*
X79068500Y-95153750I0J325000D01*
G01*
X82668500Y-96978750D02*
X82668500Y-105818750D01*
X82518500Y-105968750D02*
X78508500Y-105968750D01*
X79968500Y-107643750D02*
X79068500Y-107643750D01*
X79968500Y-106993750D02*
X79068500Y-106993750D01*
X79968500Y-95803750D02*
X79068500Y-95803750D01*
X79968500Y-95153750D02*
X79068500Y-95153750D01*
X78508500Y-105968750D02*
X78158500Y-106318750D01*
X78508500Y-96828750D02*
X82518500Y-96828750D01*
X78158500Y-96478750D02*
X78508500Y-96828750D01*
%TD*%
M02*
