%TF.GenerationSoftware,KiCad,Pcbnew,9.0.1*%
%TF.CreationDate,2025-04-27T01:07:48-04:00*%
%TF.ProjectId,smart_stove_guard,736d6172-745f-4737-946f-76655f677561,rev?*%
%TF.SameCoordinates,Original*%
%TF.FileFunction,Soldermask,Bot*%
%TF.FilePolarity,Negative*%
%FSLAX46Y46*%
G04 Gerber Fmt 4.6, Leading zero omitted, Abs format (unit mm)*
G04 Created by KiCad (PCBNEW 9.0.1) date 2025-04-27 01:07:48*
%MOMM*%
%LPD*%
G01*
G04 APERTURE LIST*
G04 Aperture macros list*
%AMRoundRect*
0 Rectangle with rounded corners*
0 $1 Rounding radius*
0 $2 $3 $4 $5 $6 $7 $8 $9 X,Y pos of 4 corners*
0 Add a 4 corners polygon primitive as box body*
4,1,4,$2,$3,$4,$5,$6,$7,$8,$9,$2,$3,0*
0 Add four circle primitives for the rounded corners*
1,1,$1+$1,$2,$3*
1,1,$1+$1,$4,$5*
1,1,$1+$1,$6,$7*
1,1,$1+$1,$8,$9*
0 Add four rect primitives between the rounded corners*
20,1,$1+$1,$2,$3,$4,$5,0*
20,1,$1+$1,$4,$5,$6,$7,0*
20,1,$1+$1,$6,$7,$8,$9,0*
20,1,$1+$1,$8,$9,$2,$3,0*%
%AMFreePoly0*
4,1,249,0.004550,0.906903,0.051550,0.904903,0.057908,0.904433,0.058534,0.904367,0.064955,0.903483,0.111955,0.895483,0.116590,0.894583,0.117039,0.894485,0.121570,0.893387,0.166570,0.881387,0.171806,0.879839,0.172320,0.879672,0.177563,0.877809,0.221563,0.860809,0.226069,0.858944,0.226503,0.858752,0.230852,0.856704,0.272852,0.835704,0.277920,0.832988,0.278409,0.832708,
0.283314,0.829713,0.323314,0.803713,0.328261,0.800286,0.328737,0.799935,0.333500,0.796200,0.369500,0.766200,0.372870,0.763264,0.373205,0.762959,0.376661,0.759661,0.409661,0.726661,0.412959,0.723205,0.413264,0.722870,0.416200,0.719500,0.446200,0.683500,0.449935,0.678737,0.450286,0.678261,0.453713,0.673314,0.479713,0.633314,0.482708,0.628409,0.482988,0.627920,
0.485704,0.622852,0.506704,0.580852,0.508752,0.576503,0.508944,0.576069,0.510809,0.571563,0.527809,0.527563,0.529672,0.522320,0.529839,0.521806,0.531387,0.516570,0.543387,0.471570,0.544485,0.467039,0.544583,0.466590,0.545483,0.461955,0.553483,0.414955,0.554367,0.408534,0.554433,0.407908,0.554903,0.401550,0.556903,0.354550,0.556967,0.352607,0.556972,0.352394,
0.557000,0.350000,0.557000,-0.350000,0.556972,-0.352394,0.556967,-0.352607,0.556903,-0.354550,0.554903,-0.401550,0.554433,-0.407908,0.554367,-0.408534,0.553483,-0.414955,0.545483,-0.461955,0.544583,-0.466590,0.544485,-0.467039,0.543387,-0.471570,0.531387,-0.516570,0.529839,-0.521806,0.529672,-0.522320,0.527809,-0.527563,0.510809,-0.571563,0.508944,-0.576069,0.508752,-0.576503,
0.506704,-0.580852,0.485704,-0.622852,0.482988,-0.627920,0.482708,-0.628409,0.479713,-0.633314,0.453713,-0.673314,0.450286,-0.678261,0.449935,-0.678737,0.446200,-0.683500,0.416200,-0.719500,0.413264,-0.722870,0.412959,-0.723205,0.409661,-0.726661,0.376661,-0.759661,0.373205,-0.762959,0.372870,-0.763264,0.369500,-0.766200,0.333500,-0.796200,0.328737,-0.799935,0.328261,-0.800286,
0.323314,-0.803713,0.283314,-0.829713,0.278409,-0.832708,0.277920,-0.832988,0.272852,-0.835704,0.230852,-0.856704,0.226503,-0.858752,0.226069,-0.858944,0.221563,-0.860809,0.177563,-0.877809,0.172320,-0.879672,0.171806,-0.879839,0.166570,-0.881387,0.121570,-0.893387,0.117039,-0.894485,0.116590,-0.894583,0.111955,-0.895483,0.064955,-0.903483,0.058534,-0.904367,0.057908,-0.904433,
0.051550,-0.904903,0.004550,-0.906903,0.000213,-0.906995,-0.000213,-0.906995,-0.004550,-0.906903,-0.051550,-0.904903,-0.057908,-0.904433,-0.058534,-0.904367,-0.064955,-0.903483,-0.111955,-0.895483,-0.116590,-0.894583,-0.117039,-0.894485,-0.121570,-0.893387,-0.166570,-0.881387,-0.171806,-0.879839,-0.172320,-0.879672,-0.177563,-0.877809,-0.221563,-0.860809,-0.226069,-0.858944,-0.226503,-0.858752,
-0.230852,-0.856704,-0.272852,-0.835704,-0.277920,-0.832988,-0.278409,-0.832708,-0.283314,-0.829713,-0.323314,-0.803713,-0.328261,-0.800286,-0.328737,-0.799935,-0.333500,-0.796200,-0.369500,-0.766200,-0.372870,-0.763264,-0.373205,-0.762959,-0.376661,-0.759661,-0.409661,-0.726661,-0.412959,-0.723205,-0.413264,-0.722870,-0.416200,-0.719500,-0.446200,-0.683500,-0.449935,-0.678737,-0.450286,-0.678261,
-0.453713,-0.673314,-0.479713,-0.633314,-0.482708,-0.628409,-0.482988,-0.627920,-0.485704,-0.622852,-0.506704,-0.580852,-0.508752,-0.576503,-0.508944,-0.576069,-0.510809,-0.571563,-0.527809,-0.527563,-0.529672,-0.522320,-0.529839,-0.521806,-0.531387,-0.516570,-0.543387,-0.471570,-0.544485,-0.467039,-0.544583,-0.466590,-0.545483,-0.461955,-0.553483,-0.414955,-0.554367,-0.408534,-0.554433,-0.407908,
-0.554903,-0.401550,-0.556903,-0.354550,-0.556967,-0.352607,-0.556972,-0.352394,-0.557000,-0.350000,-0.557000,0.350000,-0.556972,0.352394,-0.556967,0.352607,-0.556903,0.354550,-0.554903,0.401550,-0.554433,0.407908,-0.554367,0.408534,-0.553483,0.414955,-0.545483,0.461955,-0.544583,0.466590,-0.544485,0.467039,-0.543387,0.471570,-0.531387,0.516570,-0.529839,0.521806,-0.529672,0.522320,
-0.527809,0.527563,-0.510809,0.571563,-0.508944,0.576069,-0.508752,0.576503,-0.506704,0.580852,-0.485704,0.622852,-0.482988,0.627920,-0.482708,0.628409,-0.479713,0.633314,-0.453713,0.673314,-0.450286,0.678261,-0.449935,0.678737,-0.446200,0.683500,-0.416200,0.719500,-0.413264,0.722870,-0.412959,0.723205,-0.409661,0.726661,-0.376661,0.759661,-0.373205,0.762959,-0.372870,0.763264,
-0.369500,0.766200,-0.333500,0.796200,-0.328737,0.799935,-0.328261,0.800286,-0.323314,0.803713,-0.283314,0.829713,-0.278409,0.832708,-0.277920,0.832988,-0.272852,0.835704,-0.230852,0.856704,-0.226503,0.858752,-0.226069,0.858944,-0.221563,0.860809,-0.177563,0.877809,-0.172320,0.879672,-0.171806,0.879839,-0.166570,0.881387,-0.121570,0.893387,-0.117039,0.894485,-0.116590,0.894583,
-0.111955,0.895483,-0.064955,0.903483,-0.058534,0.904367,-0.057908,0.904433,-0.051550,0.904903,-0.004550,0.906903,-0.000213,0.906995,0.000213,0.906995,0.004550,0.906903,0.004550,0.906903,$1*%
G04 Aperture macros list end*
%ADD10C,0.010000*%
%ADD11O,1.504000X1.104000*%
%ADD12FreePoly0,270.000000*%
%ADD13C,0.650000*%
%ADD14C,1.700000*%
%ADD15R,1.700000X1.700000*%
%ADD16C,1.396000*%
%ADD17C,1.402000*%
%ADD18RoundRect,0.102000X-0.599000X-0.599000X0.599000X-0.599000X0.599000X0.599000X-0.599000X0.599000X0*%
%ADD19C,1.300000*%
%ADD20R,1.300000X1.300000*%
%ADD21C,1.804000*%
%ADD22C,3.200000*%
G04 APERTURE END LIST*
D10*
%TO.C,J1*%
X79925500Y-106771750D02*
X79982500Y-106780750D01*
X80038500Y-106795750D01*
X80092500Y-106816750D01*
X80143500Y-106842750D01*
X80191500Y-106873750D01*
X80236500Y-106909750D01*
X80277500Y-106950750D01*
X80313500Y-106995750D01*
X80344500Y-107043750D01*
X80370500Y-107094750D01*
X80391500Y-107148750D01*
X80406500Y-107204750D01*
X80415500Y-107261750D01*
X80418500Y-107318750D01*
X80415500Y-107375750D01*
X80406500Y-107432750D01*
X80391500Y-107488750D01*
X80370500Y-107542750D01*
X80344500Y-107593750D01*
X80313500Y-107641750D01*
X80277500Y-107686750D01*
X80236500Y-107727750D01*
X80191500Y-107763750D01*
X80143500Y-107794750D01*
X80092500Y-107820750D01*
X80038500Y-107841750D01*
X79982500Y-107856750D01*
X79925500Y-107865750D01*
X79868500Y-107868750D01*
X79168500Y-107868750D01*
X79111500Y-107865750D01*
X79054500Y-107856750D01*
X78998500Y-107841750D01*
X78944500Y-107820750D01*
X78893500Y-107794750D01*
X78845500Y-107763750D01*
X78800500Y-107727750D01*
X78759500Y-107686750D01*
X78723500Y-107641750D01*
X78692500Y-107593750D01*
X78666500Y-107542750D01*
X78645500Y-107488750D01*
X78630500Y-107432750D01*
X78621500Y-107375750D01*
X78618500Y-107318750D01*
X78621500Y-107261750D01*
X78630500Y-107204750D01*
X78645500Y-107148750D01*
X78666500Y-107094750D01*
X78692500Y-107043750D01*
X78723500Y-106995750D01*
X78759500Y-106950750D01*
X78800500Y-106909750D01*
X78845500Y-106873750D01*
X78893500Y-106842750D01*
X78944500Y-106816750D01*
X78998500Y-106795750D01*
X79054500Y-106780750D01*
X79111500Y-106771750D01*
X79168500Y-106768750D01*
X79868500Y-106768750D01*
X79925500Y-106771750D01*
G36*
X79925500Y-106771750D02*
G01*
X79982500Y-106780750D01*
X80038500Y-106795750D01*
X80092500Y-106816750D01*
X80143500Y-106842750D01*
X80191500Y-106873750D01*
X80236500Y-106909750D01*
X80277500Y-106950750D01*
X80313500Y-106995750D01*
X80344500Y-107043750D01*
X80370500Y-107094750D01*
X80391500Y-107148750D01*
X80406500Y-107204750D01*
X80415500Y-107261750D01*
X80418500Y-107318750D01*
X80415500Y-107375750D01*
X80406500Y-107432750D01*
X80391500Y-107488750D01*
X80370500Y-107542750D01*
X80344500Y-107593750D01*
X80313500Y-107641750D01*
X80277500Y-107686750D01*
X80236500Y-107727750D01*
X80191500Y-107763750D01*
X80143500Y-107794750D01*
X80092500Y-107820750D01*
X80038500Y-107841750D01*
X79982500Y-107856750D01*
X79925500Y-107865750D01*
X79868500Y-107868750D01*
X79168500Y-107868750D01*
X79111500Y-107865750D01*
X79054500Y-107856750D01*
X78998500Y-107841750D01*
X78944500Y-107820750D01*
X78893500Y-107794750D01*
X78845500Y-107763750D01*
X78800500Y-107727750D01*
X78759500Y-107686750D01*
X78723500Y-107641750D01*
X78692500Y-107593750D01*
X78666500Y-107542750D01*
X78645500Y-107488750D01*
X78630500Y-107432750D01*
X78621500Y-107375750D01*
X78618500Y-107318750D01*
X78621500Y-107261750D01*
X78630500Y-107204750D01*
X78645500Y-107148750D01*
X78666500Y-107094750D01*
X78692500Y-107043750D01*
X78723500Y-106995750D01*
X78759500Y-106950750D01*
X78800500Y-106909750D01*
X78845500Y-106873750D01*
X78893500Y-106842750D01*
X78944500Y-106816750D01*
X78998500Y-106795750D01*
X79054500Y-106780750D01*
X79111500Y-106771750D01*
X79168500Y-106768750D01*
X79868500Y-106768750D01*
X79925500Y-106771750D01*
G37*
X79925500Y-94931750D02*
X79982500Y-94940750D01*
X80038500Y-94955750D01*
X80092500Y-94976750D01*
X80143500Y-95002750D01*
X80191500Y-95033750D01*
X80236500Y-95069750D01*
X80277500Y-95110750D01*
X80313500Y-95155750D01*
X80344500Y-95203750D01*
X80370500Y-95254750D01*
X80391500Y-95308750D01*
X80406500Y-95364750D01*
X80415500Y-95421750D01*
X80418500Y-95478750D01*
X80415500Y-95535750D01*
X80406500Y-95592750D01*
X80391500Y-95648750D01*
X80370500Y-95702750D01*
X80344500Y-95753750D01*
X80313500Y-95801750D01*
X80277500Y-95846750D01*
X80236500Y-95887750D01*
X80191500Y-95923750D01*
X80143500Y-95954750D01*
X80092500Y-95980750D01*
X80038500Y-96001750D01*
X79982500Y-96016750D01*
X79925500Y-96025750D01*
X79868500Y-96028750D01*
X79168500Y-96028750D01*
X79111500Y-96025750D01*
X79054500Y-96016750D01*
X78998500Y-96001750D01*
X78944500Y-95980750D01*
X78893500Y-95954750D01*
X78845500Y-95923750D01*
X78800500Y-95887750D01*
X78759500Y-95846750D01*
X78723500Y-95801750D01*
X78692500Y-95753750D01*
X78666500Y-95702750D01*
X78645500Y-95648750D01*
X78630500Y-95592750D01*
X78621500Y-95535750D01*
X78618500Y-95478750D01*
X78621500Y-95421750D01*
X78630500Y-95364750D01*
X78645500Y-95308750D01*
X78666500Y-95254750D01*
X78692500Y-95203750D01*
X78723500Y-95155750D01*
X78759500Y-95110750D01*
X78800500Y-95069750D01*
X78845500Y-95033750D01*
X78893500Y-95002750D01*
X78944500Y-94976750D01*
X78998500Y-94955750D01*
X79054500Y-94940750D01*
X79111500Y-94931750D01*
X79168500Y-94928750D01*
X79868500Y-94928750D01*
X79925500Y-94931750D01*
G36*
X79925500Y-94931750D02*
G01*
X79982500Y-94940750D01*
X80038500Y-94955750D01*
X80092500Y-94976750D01*
X80143500Y-95002750D01*
X80191500Y-95033750D01*
X80236500Y-95069750D01*
X80277500Y-95110750D01*
X80313500Y-95155750D01*
X80344500Y-95203750D01*
X80370500Y-95254750D01*
X80391500Y-95308750D01*
X80406500Y-95364750D01*
X80415500Y-95421750D01*
X80418500Y-95478750D01*
X80415500Y-95535750D01*
X80406500Y-95592750D01*
X80391500Y-95648750D01*
X80370500Y-95702750D01*
X80344500Y-95753750D01*
X80313500Y-95801750D01*
X80277500Y-95846750D01*
X80236500Y-95887750D01*
X80191500Y-95923750D01*
X80143500Y-95954750D01*
X80092500Y-95980750D01*
X80038500Y-96001750D01*
X79982500Y-96016750D01*
X79925500Y-96025750D01*
X79868500Y-96028750D01*
X79168500Y-96028750D01*
X79111500Y-96025750D01*
X79054500Y-96016750D01*
X78998500Y-96001750D01*
X78944500Y-95980750D01*
X78893500Y-95954750D01*
X78845500Y-95923750D01*
X78800500Y-95887750D01*
X78759500Y-95846750D01*
X78723500Y-95801750D01*
X78692500Y-95753750D01*
X78666500Y-95702750D01*
X78645500Y-95648750D01*
X78630500Y-95592750D01*
X78621500Y-95535750D01*
X78618500Y-95478750D01*
X78621500Y-95421750D01*
X78630500Y-95364750D01*
X78645500Y-95308750D01*
X78666500Y-95254750D01*
X78692500Y-95203750D01*
X78723500Y-95155750D01*
X78759500Y-95110750D01*
X78800500Y-95069750D01*
X78845500Y-95033750D01*
X78893500Y-95002750D01*
X78944500Y-94976750D01*
X78998500Y-94955750D01*
X79054500Y-94940750D01*
X79111500Y-94931750D01*
X79168500Y-94928750D01*
X79868500Y-94928750D01*
X79925500Y-94931750D01*
G37*
%TD*%
D11*
%TO.C,J1*%
X83838500Y-106048750D03*
X83838500Y-96748750D03*
D12*
X79518500Y-107318750D03*
X79518500Y-95478750D03*
D13*
X83368500Y-104898750D03*
X83368500Y-97898750D03*
%TD*%
D14*
%TO.C,J3*%
X95130000Y-127194300D03*
X95130000Y-129734300D03*
X97670000Y-127194300D03*
X97670000Y-129734300D03*
X100210000Y-127194300D03*
X100210000Y-129734300D03*
X102750000Y-127194300D03*
X102750000Y-129734300D03*
X105290000Y-127194300D03*
X105290000Y-129734300D03*
X107830000Y-127194300D03*
X107830000Y-129734300D03*
X110370000Y-127194300D03*
X110370000Y-129734300D03*
X112910000Y-127194300D03*
X112910000Y-129734300D03*
X115450000Y-127194300D03*
D15*
X115450000Y-129734300D03*
%TD*%
D16*
%TO.C,IC1*%
X113300000Y-91948000D03*
X110760000Y-94488000D03*
X108220000Y-91948000D03*
X110760000Y-89408000D03*
%TD*%
D17*
%TO.C,U2*%
X126340000Y-89404300D03*
X128880000Y-91944300D03*
X126340000Y-94484300D03*
D18*
X123800000Y-91944300D03*
%TD*%
D19*
%TO.C,J2*%
X104300000Y-115944300D03*
D20*
X110800000Y-115944300D03*
%TD*%
D21*
%TO.C,S1*%
X80800000Y-120944300D03*
X80800000Y-114444300D03*
X85300000Y-120944300D03*
X85300000Y-114444300D03*
%TD*%
D22*
%TO.C,REF\u002A\u002A*%
X144018000Y-89154000D03*
%TD*%
%TO.C,REF\u002A\u002A*%
X82042000Y-89154000D03*
%TD*%
%TO.C,REF\u002A\u002A*%
X82042000Y-131826000D03*
%TD*%
M02*
