%TF.GenerationSoftware,KiCad,Pcbnew,9.0.1*%
%TF.CreationDate,2025-04-27T01:07:48-04:00*%
%TF.ProjectId,smart_stove_guard,736d6172-745f-4737-946f-76655f677561,rev?*%
%TF.SameCoordinates,Original*%
%TF.FileFunction,Copper,L1,Top*%
%TF.FilePolarity,Positive*%
%FSLAX46Y46*%
G04 Gerber Fmt 4.6, Leading zero omitted, Abs format (unit mm)*
G04 Created by KiCad (PCBNEW 9.0.1) date 2025-04-27 01:07:48*
%MOMM*%
%LPD*%
G01*
G04 APERTURE LIST*
G04 Aperture macros list*
%AMRoundRect*
0 Rectangle with rounded corners*
0 $1 Rounding radius*
0 $2 $3 $4 $5 $6 $7 $8 $9 X,Y pos of 4 corners*
0 Add a 4 corners polygon primitive as box body*
4,1,4,$2,$3,$4,$5,$6,$7,$8,$9,$2,$3,0*
0 Add four circle primitives for the rounded corners*
1,1,$1+$1,$2,$3*
1,1,$1+$1,$4,$5*
1,1,$1+$1,$6,$7*
1,1,$1+$1,$8,$9*
0 Add four rect primitives between the rounded corners*
20,1,$1+$1,$2,$3,$4,$5,0*
20,1,$1+$1,$4,$5,$6,$7,0*
20,1,$1+$1,$6,$7,$8,$9,0*
20,1,$1+$1,$8,$9,$2,$3,0*%
%AMFreePoly0*
4,1,125,0.047213,0.802995,0.047839,0.802929,0.094839,0.794929,0.095288,0.794831,0.140288,0.782831,0.140802,0.782664,0.184802,0.765664,0.185236,0.765472,0.227236,0.744472,0.227725,0.744192,0.267725,0.718192,0.268201,0.717841,0.304201,0.687841,0.304536,0.687536,0.337536,0.654536,0.337841,0.654201,0.367841,0.618201,0.368192,0.617725,0.394192,0.577725,0.394472,0.577236,
0.415472,0.535236,0.415664,0.534802,0.432664,0.490802,0.432831,0.490288,0.444831,0.445288,0.444929,0.444839,0.452929,0.397839,0.452995,0.397213,0.454995,0.350213,0.455000,0.350000,0.455000,-0.350000,0.454995,-0.350213,0.452995,-0.397213,0.452929,-0.397839,0.444929,-0.444839,0.444831,-0.445288,0.432831,-0.490288,0.432664,-0.490802,0.415664,-0.534802,0.415472,-0.535236,
0.394472,-0.577236,0.394192,-0.577725,0.368192,-0.617725,0.367841,-0.618201,0.337841,-0.654201,0.337536,-0.654536,0.304536,-0.687536,0.304201,-0.687841,0.268201,-0.717841,0.267725,-0.718192,0.227725,-0.744192,0.227236,-0.744472,0.185236,-0.765472,0.184802,-0.765664,0.140802,-0.782664,0.140288,-0.782831,0.095288,-0.794831,0.094839,-0.794929,0.047839,-0.802929,0.047213,-0.802995,
0.000213,-0.804995,-0.000213,-0.804995,-0.047213,-0.802995,-0.047839,-0.802929,-0.094839,-0.794929,-0.095288,-0.794831,-0.140288,-0.782831,-0.140802,-0.782664,-0.184802,-0.765664,-0.185236,-0.765472,-0.227236,-0.744472,-0.227725,-0.744192,-0.267725,-0.718192,-0.268201,-0.717841,-0.304201,-0.687841,-0.304536,-0.687536,-0.337536,-0.654536,-0.337841,-0.654201,-0.367841,-0.618201,-0.368192,-0.617725,
-0.394192,-0.577725,-0.394472,-0.577236,-0.415472,-0.535236,-0.415664,-0.534802,-0.432664,-0.490802,-0.432831,-0.490288,-0.444831,-0.445288,-0.444929,-0.444839,-0.452929,-0.397839,-0.452995,-0.397213,-0.454995,-0.350213,-0.455000,-0.350000,-0.455000,0.350000,-0.454995,0.350213,-0.452995,0.397213,-0.452929,0.397839,-0.444929,0.444839,-0.444831,0.445288,-0.432831,0.490288,-0.432664,0.490802,
-0.415664,0.534802,-0.415472,0.535236,-0.394472,0.577236,-0.394192,0.577725,-0.368192,0.617725,-0.367841,0.618201,-0.337841,0.654201,-0.337536,0.654536,-0.304536,0.687536,-0.304201,0.687841,-0.268201,0.717841,-0.267725,0.718192,-0.227725,0.744192,-0.227236,0.744472,-0.185236,0.765472,-0.184802,0.765664,-0.140802,0.782664,-0.140288,0.782831,-0.095288,0.794831,-0.094839,0.794929,
-0.047839,0.802929,-0.047213,0.802995,-0.000213,0.804995,0.000213,0.804995,0.047213,0.802995,0.047213,0.802995,$1*%
G04 Aperture macros list end*
%TA.AperFunction,SMDPad,CuDef*%
%ADD10R,0.812800X0.812800*%
%TD*%
%TA.AperFunction,SMDPad,CuDef*%
%ADD11R,0.889000X1.498600*%
%TD*%
%TA.AperFunction,ComponentPad*%
%ADD12O,1.300000X0.900000*%
%TD*%
%TA.AperFunction,ComponentPad*%
%ADD13FreePoly0,270.000000*%
%TD*%
%TA.AperFunction,SMDPad,CuDef*%
%ADD14R,1.400000X0.300000*%
%TD*%
%TA.AperFunction,SMDPad,CuDef*%
%ADD15R,1.400000X0.800000*%
%TD*%
%TA.AperFunction,SMDPad,CuDef*%
%ADD16RoundRect,0.250000X0.503814X0.132583X0.132583X0.503814X-0.503814X-0.132583X-0.132583X-0.503814X0*%
%TD*%
%TA.AperFunction,SMDPad,CuDef*%
%ADD17RoundRect,0.250000X-0.445000X0.545000X-0.445000X-0.545000X0.445000X-0.545000X0.445000X0.545000X0*%
%TD*%
%TA.AperFunction,SMDPad,CuDef*%
%ADD18RoundRect,0.250000X0.445000X-0.545000X0.445000X0.545000X-0.445000X0.545000X-0.445000X-0.545000X0*%
%TD*%
%TA.AperFunction,SMDPad,CuDef*%
%ADD19RoundRect,0.250000X-0.132583X0.503814X-0.503814X0.132583X0.132583X-0.503814X0.503814X-0.132583X0*%
%TD*%
%TA.AperFunction,ComponentPad*%
%ADD20C,1.700000*%
%TD*%
%TA.AperFunction,ComponentPad*%
%ADD21R,1.700000X1.700000*%
%TD*%
%TA.AperFunction,SMDPad,CuDef*%
%ADD22RoundRect,0.250000X0.450000X-0.262500X0.450000X0.262500X-0.450000X0.262500X-0.450000X-0.262500X0*%
%TD*%
%TA.AperFunction,ComponentPad*%
%ADD23C,1.192000*%
%TD*%
%TA.AperFunction,SMDPad,CuDef*%
%ADD24RoundRect,0.250000X0.250000X0.475000X-0.250000X0.475000X-0.250000X-0.475000X0.250000X-0.475000X0*%
%TD*%
%TA.AperFunction,SMDPad,CuDef*%
%ADD25RoundRect,0.250000X-0.262500X-0.450000X0.262500X-0.450000X0.262500X0.450000X-0.262500X0.450000X0*%
%TD*%
%TA.AperFunction,SMDPad,CuDef*%
%ADD26RoundRect,0.250000X-0.503814X-0.132583X-0.132583X-0.503814X0.503814X0.132583X0.132583X0.503814X0*%
%TD*%
%TA.AperFunction,SMDPad,CuDef*%
%ADD27RoundRect,0.250000X-0.475000X0.250000X-0.475000X-0.250000X0.475000X-0.250000X0.475000X0.250000X0*%
%TD*%
%TA.AperFunction,SMDPad,CuDef*%
%ADD28RoundRect,0.250000X0.475000X-0.250000X0.475000X0.250000X-0.475000X0.250000X-0.475000X-0.250000X0*%
%TD*%
%TA.AperFunction,ComponentPad*%
%ADD29C,1.198000*%
%TD*%
%TA.AperFunction,ComponentPad*%
%ADD30R,1.198000X1.198000*%
%TD*%
%TA.AperFunction,ComponentPad*%
%ADD31C,1.300000*%
%TD*%
%TA.AperFunction,ComponentPad*%
%ADD32R,1.300000X1.300000*%
%TD*%
%TA.AperFunction,SMDPad,CuDef*%
%ADD33R,0.800000X0.800000*%
%TD*%
%TA.AperFunction,ComponentPad*%
%ADD34C,1.600000*%
%TD*%
%TA.AperFunction,SMDPad,CuDef*%
%ADD35RoundRect,0.250000X0.262500X0.450000X-0.262500X0.450000X-0.262500X-0.450000X0.262500X-0.450000X0*%
%TD*%
%TA.AperFunction,SMDPad,CuDef*%
%ADD36RoundRect,0.250000X-0.450000X0.262500X-0.450000X-0.262500X0.450000X-0.262500X0.450000X0.262500X0*%
%TD*%
%TA.AperFunction,SMDPad,CuDef*%
%ADD37RoundRect,0.375000X-0.375000X0.625000X-0.375000X-0.625000X0.375000X-0.625000X0.375000X0.625000X0*%
%TD*%
%TA.AperFunction,SMDPad,CuDef*%
%ADD38RoundRect,0.500000X-1.400000X0.500000X-1.400000X-0.500000X1.400000X-0.500000X1.400000X0.500000X0*%
%TD*%
%TA.AperFunction,ViaPad*%
%ADD39C,0.600000*%
%TD*%
%TA.AperFunction,Conductor*%
%ADD40C,0.200000*%
%TD*%
%TA.AperFunction,Conductor*%
%ADD41C,0.500000*%
%TD*%
G04 APERTURE END LIST*
D10*
%TO.P,U1,37,GND*%
%TO.N,GND*%
X134800000Y-119194300D03*
%TO.P,U1,36,GND*%
X134800000Y-120444300D03*
%TO.P,U1,35,GND*%
X133550000Y-120444300D03*
%TO.P,U1,34,GND*%
X132300000Y-120444300D03*
%TO.P,U1,33,GND*%
X132300000Y-119194300D03*
%TO.P,U1,32,GND*%
X132300000Y-117944300D03*
%TO.P,U1,31,GND*%
X133550000Y-117944300D03*
%TO.P,U1,30,GND*%
X134800000Y-117944300D03*
%TO.P,U1,29,GND*%
X133550000Y-119194300D03*
D11*
%TO.P,U1,28,GND*%
X139270000Y-129449300D03*
%TO.P,U1,27,IO2*%
%TO.N,IO2*%
X138000000Y-129449300D03*
%TO.P,U1,26,IO3*%
%TO.N,IO3*%
X136730000Y-129449300D03*
%TO.P,U1,25,TXD0*%
%TO.N,TXD0*%
X135460000Y-129449300D03*
%TO.P,U1,24,RXD0*%
%TO.N,RXD0*%
X134190000Y-129449300D03*
%TO.P,U1,23,IO15*%
%TO.N,JTAG_SIG*%
X132920000Y-129449300D03*
%TO.P,U1,22,NC*%
%TO.N,unconnected-(U1-NC-Pad22)*%
X131650000Y-129449300D03*
%TO.P,U1,21,IO23*%
%TO.N,IO23*%
X130380000Y-129449300D03*
%TO.P,U1,20,IO22*%
%TO.N,IO22*%
X129110000Y-129449300D03*
%TO.P,U1,19,IO21*%
%TO.N,IO21*%
X127840000Y-129449300D03*
%TO.P,U1,18,IO20*%
%TO.N,IO20*%
X126570000Y-129449300D03*
%TO.P,U1,17,IO19*%
%TO.N,LED_OUT*%
X125300000Y-129449300D03*
%TO.P,U1,16,IO18*%
%TO.N,MOTION*%
X124030000Y-129449300D03*
%TO.P,U1,15,IO9*%
%TO.N,BOOT_2*%
X122760000Y-129449300D03*
%TO.P,U1,14,IO13*%
%TO.N,D+*%
X122760000Y-111949300D03*
%TO.P,U1,13,IO12*%
%TO.N,D-*%
X124030000Y-111949300D03*
%TO.P,U1,12,IO11*%
%TO.N,BUZZER*%
X125300000Y-111949300D03*
%TO.P,U1,11,IO10*%
%TO.N,USER_BUTTON*%
X126570000Y-111949300D03*
%TO.P,U1,10,IO8*%
%TO.N,BOOT_1*%
X127840000Y-111949300D03*
%TO.P,U1,9,IO1*%
%TO.N,IO1*%
X129110000Y-111949300D03*
%TO.P,U1,8,IO0*%
%TO.N,IO0*%
X130380000Y-111949300D03*
%TO.P,U1,7,IO7*%
%TO.N,SCL*%
X131650000Y-111949300D03*
%TO.P,U1,6,IO6*%
%TO.N,SDA*%
X132920000Y-111949300D03*
%TO.P,U1,5,IO5*%
%TO.N,MTDI*%
X134190000Y-111949300D03*
%TO.P,U1,4,IO4*%
%TO.N,MTMS*%
X135460000Y-111949300D03*
%TO.P,U1,3,EN*%
%TO.N,EN*%
X136730000Y-111949300D03*
%TO.P,U1,2,3V3*%
%TO.N,+3V3*%
X138000000Y-111949300D03*
%TO.P,U1,1,GND*%
%TO.N,GND*%
X139270000Y-111949300D03*
%TD*%
D12*
%TO.P,J1,S4,SHELL_GND*%
%TO.N,GND*%
X83838500Y-106048750D03*
%TO.P,J1,S3,SHELL_GND*%
X83838500Y-96748750D03*
D13*
%TO.P,J1,S2,SHELL_GND*%
X79518500Y-107318750D03*
%TO.P,J1,S1,SHELL_GND*%
X79518500Y-95478750D03*
D14*
%TO.P,J1,B8,SBU2*%
%TO.N,unconnected-(J1-SBU2-PadB8)*%
X84618500Y-99648750D03*
%TO.P,J1,B7,D2-*%
%TO.N,D-*%
X84618500Y-100648750D03*
%TO.P,J1,B6,D2+*%
%TO.N,D+*%
X84618500Y-102148750D03*
%TO.P,J1,B5,CC2*%
%TO.N,Net-(J1-CC2)*%
X84618500Y-103148750D03*
D15*
%TO.P,J1,A12_B1,GND*%
%TO.N,GND*%
X84618500Y-104898750D03*
%TO.P,J1,A9_B4,VBUS*%
%TO.N,Net-(C6-Pad2)*%
X84618500Y-103898750D03*
D14*
%TO.P,J1,A8,SBU1*%
%TO.N,unconnected-(J1-SBU1-PadA8)*%
X84618500Y-102648750D03*
%TO.P,J1,A7,D1-*%
%TO.N,D-*%
X84618500Y-101648750D03*
%TO.P,J1,A6,D1+*%
%TO.N,D+*%
X84618500Y-101148750D03*
%TO.P,J1,A5,CC1*%
%TO.N,Net-(J1-CC1)*%
X84618500Y-100148750D03*
D15*
%TO.P,J1,A4_B9,VBUS*%
%TO.N,Net-(C6-Pad2)*%
X84618500Y-98898750D03*
%TO.P,J1,A1_B12,GND*%
%TO.N,GND*%
X84618500Y-97898750D03*
%TD*%
D16*
%TO.P,R9,1*%
%TO.N,GND*%
X89916000Y-102616000D03*
%TO.P,R9,2*%
%TO.N,Net-(J1-CC1)*%
X88625530Y-101325530D03*
%TD*%
D17*
%TO.P,C2,1*%
%TO.N,+3V3*%
X102870000Y-95672000D03*
%TO.P,C2,2*%
%TO.N,GND*%
X102870000Y-98552000D03*
%TD*%
D18*
%TO.P,C1,1*%
%TO.N,+5V*%
X92202000Y-93134000D03*
%TO.P,C1,2*%
%TO.N,GND*%
X92202000Y-90254000D03*
%TD*%
D19*
%TO.P,R8,1*%
%TO.N,+3V3*%
X127782470Y-104627530D03*
%TO.P,R8,2*%
%TO.N,SCL*%
X126492000Y-105918000D03*
%TD*%
%TO.P,R7,2*%
%TO.N,SDA*%
X128778000Y-106680000D03*
%TO.P,R7,1*%
%TO.N,+3V3*%
X130068470Y-105389530D03*
%TD*%
D20*
%TO.P,J3,18,Pin_18*%
%TO.N,+3V3*%
X95130000Y-127194300D03*
%TO.P,J3,17,Pin_17*%
%TO.N,TXD0*%
X95130000Y-129734300D03*
%TO.P,J3,16,Pin_16*%
%TO.N,IO1*%
X97670000Y-127194300D03*
%TO.P,J3,15,Pin_15*%
%TO.N,RXD0*%
X97670000Y-129734300D03*
%TO.P,J3,14,Pin_14*%
%TO.N,IO0*%
X100210000Y-127194300D03*
%TO.P,J3,13,Pin_13*%
%TO.N,JTAG_SIG*%
X100210000Y-129734300D03*
%TO.P,J3,12,Pin_12*%
%TO.N,SCL*%
X102750000Y-127194300D03*
%TO.P,J3,11,Pin_11*%
%TO.N,IO23*%
X102750000Y-129734300D03*
%TO.P,J3,10,Pin_10*%
%TO.N,SDA*%
X105290000Y-127194300D03*
%TO.P,J3,9,Pin_9*%
%TO.N,IO22*%
X105290000Y-129734300D03*
%TO.P,J3,8,Pin_8*%
%TO.N,GND*%
X107830000Y-127194300D03*
%TO.P,J3,7,Pin_7*%
%TO.N,IO21*%
X107830000Y-129734300D03*
%TO.P,J3,6,Pin_6*%
%TO.N,IO2*%
X110370000Y-127194300D03*
%TO.P,J3,5,Pin_5*%
%TO.N,IO20*%
X110370000Y-129734300D03*
%TO.P,J3,4,Pin_4*%
%TO.N,IO3*%
X112910000Y-127194300D03*
%TO.P,J3,3,Pin_3*%
%TO.N,BOOT_2*%
X112910000Y-129734300D03*
%TO.P,J3,2,Pin_2*%
%TO.N,BOOT_1*%
X115450000Y-127194300D03*
D21*
%TO.P,J3,1,Pin_1*%
%TO.N,GND*%
X115450000Y-129734300D03*
%TD*%
D22*
%TO.P,R14,2*%
%TO.N,GND*%
X119300000Y-129444300D03*
%TO.P,R14,1*%
%TO.N,BOOT_2*%
X119300000Y-131269300D03*
%TD*%
D23*
%TO.P,IC1,4,REL*%
%TO.N,MOTION*%
X113300000Y-91948000D03*
%TO.P,IC1,3,VDD*%
%TO.N,Net-(IC1-VDD)*%
X110760000Y-94488000D03*
%TO.P,IC1,2,ONTIME*%
%TO.N,Net-(IC1-ONTIME)*%
X108220000Y-91948000D03*
%TO.P,IC1,1,VSS*%
%TO.N,GND*%
X110760000Y-89408000D03*
%TD*%
D22*
%TO.P,R3,2*%
%TO.N,Net-(IC1-VDD)*%
X114800000Y-98019300D03*
%TO.P,R3,1*%
%TO.N,+3V3*%
X114800000Y-99844300D03*
%TD*%
D24*
%TO.P,C7,2*%
%TO.N,Net-(C6-Pad1)*%
X87254000Y-90944300D03*
%TO.P,C7,1*%
%TO.N,+5V*%
X89154000Y-90944300D03*
%TD*%
D25*
%TO.P,R1,2*%
%TO.N,EN*%
X135200000Y-104444300D03*
%TO.P,R1,1*%
%TO.N,+3V3*%
X133375000Y-104444300D03*
%TD*%
D26*
%TO.P,R2,2*%
%TO.N,GND*%
X88900000Y-105918000D03*
%TO.P,R2,1*%
%TO.N,Net-(J1-CC2)*%
X87609530Y-104627530D03*
%TD*%
D25*
%TO.P,R10,2*%
%TO.N,Net-(D1-PadA)*%
X94300000Y-119444300D03*
%TO.P,R10,1*%
%TO.N,LED_OUT*%
X92475000Y-119444300D03*
%TD*%
D24*
%TO.P,C6,2*%
%TO.N,Net-(C6-Pad2)*%
X87254000Y-93218000D03*
%TO.P,C6,1*%
%TO.N,Net-(C6-Pad1)*%
X89154000Y-93218000D03*
%TD*%
D27*
%TO.P,C3,2*%
%TO.N,+3V3*%
X112300000Y-99844300D03*
%TO.P,C3,1*%
%TO.N,GND*%
X112300000Y-97944300D03*
%TD*%
D28*
%TO.P,C8,2*%
%TO.N,GND*%
X137668000Y-105410000D03*
%TO.P,C8,1*%
%TO.N,+3V3*%
X137668000Y-107310000D03*
%TD*%
%TO.P,C4,2*%
%TO.N,+3V3*%
X132334000Y-94046000D03*
%TO.P,C4,1*%
%TO.N,GND*%
X132334000Y-95946000D03*
%TD*%
D24*
%TO.P,C5,2*%
%TO.N,GND*%
X133300000Y-106944300D03*
%TO.P,C5,1*%
%TO.N,EN*%
X135200000Y-106944300D03*
%TD*%
D29*
%TO.P,U2,4,VSS*%
%TO.N,GND*%
X126340000Y-89404300D03*
%TO.P,U2,3,VDD*%
%TO.N,+3V3*%
X128880000Y-91944300D03*
%TO.P,U2,2,SDA/PWM*%
%TO.N,SDA*%
X126340000Y-94484300D03*
D30*
%TO.P,U2,1,SCL/VZ*%
%TO.N,SCL*%
X123800000Y-91944300D03*
%TD*%
D31*
%TO.P,J2,2,-*%
%TO.N,GND*%
X104300000Y-115944300D03*
D32*
%TO.P,J2,1,+*%
%TO.N,Net-(J2-+)*%
X110800000Y-115944300D03*
%TD*%
D33*
%TO.P,D1,C*%
%TO.N,GND*%
X92584000Y-117602000D03*
%TO.P,D1,A*%
%TO.N,Net-(D1-PadA)*%
X94234000Y-117602000D03*
%TD*%
D34*
%TO.P,S1,4,4*%
%TO.N,unconnected-(S1-Pad4)*%
X80800000Y-120944300D03*
%TO.P,S1,3,3*%
%TO.N,USER_BUTTON*%
X80800000Y-114444300D03*
%TO.P,S1,2,2*%
%TO.N,+3V3*%
X85300000Y-120944300D03*
%TO.P,S1,1,1*%
X85300000Y-114444300D03*
%TD*%
D22*
%TO.P,R5,2*%
%TO.N,Net-(IC1-ONTIME)*%
X107300000Y-98119300D03*
%TO.P,R5,1*%
%TO.N,+3V3*%
X107300000Y-99944300D03*
%TD*%
D35*
%TO.P,R11,2*%
%TO.N,Net-(J2-+)*%
X114300000Y-109444300D03*
%TO.P,R11,1*%
%TO.N,BUZZER*%
X116125000Y-109444300D03*
%TD*%
D22*
%TO.P,R13,2*%
%TO.N,GND*%
X115800000Y-119619300D03*
%TO.P,R13,1*%
%TO.N,BOOT_1*%
X115800000Y-121444300D03*
%TD*%
D35*
%TO.P,R12,2*%
%TO.N,GND*%
X80264000Y-111760000D03*
%TO.P,R12,1*%
%TO.N,USER_BUTTON*%
X82089000Y-111760000D03*
%TD*%
D36*
%TO.P,R4,2*%
%TO.N,GND*%
X117300000Y-99844300D03*
%TO.P,R4,1*%
%TO.N,Net-(IC1-VDD)*%
X117300000Y-98019300D03*
%TD*%
%TO.P,R6,2*%
%TO.N,GND*%
X109800000Y-99944300D03*
%TO.P,R6,1*%
%TO.N,Net-(IC1-ONTIME)*%
X109800000Y-98119300D03*
%TD*%
D37*
%TO.P,U3,3,VI*%
%TO.N,+5V*%
X95490000Y-91490000D03*
D38*
%TO.P,U3,2,VO*%
%TO.N,+3V3*%
X97790000Y-97790000D03*
D37*
X97790000Y-91490000D03*
%TO.P,U3,1,GND*%
%TO.N,GND*%
X100090000Y-91490000D03*
%TD*%
D39*
%TO.N,GND*%
X80264000Y-111760000D03*
X115800000Y-119619300D03*
X84618500Y-104898750D03*
X84618500Y-97898750D03*
X133300000Y-106944300D03*
X137668000Y-105410000D03*
X132334000Y-95946000D03*
X112300000Y-97944300D03*
X117300000Y-99844300D03*
X109800000Y-99944300D03*
X102870000Y-98552000D03*
X100090000Y-91490000D03*
X92202000Y-90254000D03*
X88900000Y-105918000D03*
X89916000Y-102616000D03*
%TO.N,MOTION*%
X124030000Y-129449300D03*
X123952000Y-127508000D03*
X119634000Y-125984000D03*
X118872000Y-120396000D03*
%TO.N,+3V3*%
X94257037Y-111021038D03*
X97536000Y-107696000D03*
%TO.N,GND*%
X92584000Y-117602000D03*
X132300000Y-117944300D03*
X139270000Y-129449300D03*
X134800000Y-120444300D03*
X119300000Y-129444300D03*
X134800000Y-119194300D03*
X133550000Y-120444300D03*
X134800000Y-117944300D03*
X133550000Y-117944300D03*
X133550000Y-119194300D03*
X132300000Y-120444300D03*
X132300000Y-119194300D03*
X139270000Y-111949300D03*
%TO.N,BOOT_1*%
X115800000Y-121444300D03*
%TO.N,BUZZER*%
X116800000Y-105943300D03*
%TO.N,D+*%
X86300000Y-100944300D03*
%TO.N,BUZZER*%
X116125000Y-109444300D03*
%TO.N,MOTION*%
X118800000Y-105444300D03*
X118800000Y-108944300D03*
%TO.N,D+*%
X86800000Y-102944300D03*
%TD*%
D40*
%TO.N,IO3*%
X133189500Y-125383000D02*
X114721300Y-125383000D01*
X136730000Y-128923500D02*
X133189500Y-125383000D01*
X114721300Y-125383000D02*
X112910000Y-127194300D01*
X136730000Y-129449300D02*
X136730000Y-128923500D01*
D41*
%TO.N,+3V3*%
X138000000Y-107642000D02*
X138000000Y-111949300D01*
X137668000Y-107310000D02*
X138000000Y-107642000D01*
D40*
%TO.N,USER_BUTTON*%
X82089000Y-111488800D02*
X83820000Y-109757800D01*
X83820000Y-109757800D02*
X103053600Y-109757800D01*
X82089000Y-111760000D02*
X82089000Y-111488800D01*
X80800000Y-113049000D02*
X82089000Y-111760000D01*
X80800000Y-114444300D02*
X80800000Y-113049000D01*
D41*
%TO.N,GND*%
X119010000Y-129734300D02*
X119300000Y-129444300D01*
X115450000Y-129734300D02*
X119010000Y-129734300D01*
%TO.N,+3V3*%
X133375000Y-103005000D02*
X138844000Y-97536000D01*
X133375000Y-104444300D02*
X133375000Y-103005000D01*
X138844000Y-95918000D02*
X138844000Y-97536000D01*
X130068470Y-105389530D02*
X132429770Y-105389530D01*
X132429770Y-105389530D02*
X133375000Y-104444300D01*
X129306470Y-104627530D02*
X130068470Y-105389530D01*
X127782470Y-104627530D02*
X129306470Y-104627530D01*
D40*
%TO.N,MOTION*%
X122428000Y-125984000D02*
X123952000Y-127508000D01*
X119634000Y-125984000D02*
X122428000Y-125984000D01*
X118872000Y-109016300D02*
X118872000Y-120396000D01*
X118800000Y-108944300D02*
X118872000Y-109016300D01*
D41*
%TO.N,Net-(C6-Pad2)*%
X83616500Y-98898750D02*
X85818500Y-98898750D01*
X83467500Y-99047750D02*
X83616500Y-98898750D01*
X83616500Y-103898750D02*
X83467500Y-103749750D01*
X83467500Y-103749750D02*
X83467500Y-99047750D01*
X84618500Y-103898750D02*
X83616500Y-103898750D01*
X85818500Y-98898750D02*
X86135625Y-98581625D01*
X86135625Y-98581625D02*
X87254000Y-97463250D01*
%TO.N,+3V3*%
X85300000Y-120944300D02*
X85300000Y-114444300D01*
X92778300Y-114444300D02*
X95980000Y-117646000D01*
X95980000Y-117646000D02*
X95980000Y-126344300D01*
X95980000Y-126344300D02*
X95130000Y-127194300D01*
X90833775Y-114444300D02*
X92778300Y-114444300D01*
X90833775Y-114444300D02*
X85300000Y-114444300D01*
X94257037Y-111021038D02*
X90833775Y-114444300D01*
X105150850Y-100081150D02*
X97536000Y-107696000D01*
X105150850Y-97795150D02*
X105150850Y-100081150D01*
X105150850Y-97795150D02*
X107300000Y-99944300D01*
%TO.N,Net-(IC1-VDD)*%
X114295000Y-98019300D02*
X110760000Y-94484300D01*
X114800000Y-98019300D02*
X114295000Y-98019300D01*
X114800000Y-98019300D02*
X117300000Y-98019300D01*
%TO.N,+3V3*%
X112300000Y-99844300D02*
X114800000Y-99844300D01*
X109782300Y-102362000D02*
X112300000Y-99844300D01*
X109717700Y-102362000D02*
X109782300Y-102362000D01*
X107300000Y-99944300D02*
X109717700Y-102362000D01*
X102870000Y-95672000D02*
X103027700Y-95672000D01*
X103027700Y-95672000D02*
X105150850Y-97795150D01*
X102870000Y-90170000D02*
X105918000Y-87122000D01*
X102870000Y-95672000D02*
X102870000Y-90170000D01*
X100416000Y-95672000D02*
X102870000Y-95672000D01*
X98298000Y-97790000D02*
X100416000Y-95672000D01*
X97790000Y-97790000D02*
X98298000Y-97790000D01*
X97790000Y-91490000D02*
X97790000Y-97790000D01*
%TO.N,+5V*%
X93846000Y-93134000D02*
X95490000Y-91490000D01*
X92202000Y-93134000D02*
X93846000Y-93134000D01*
X90012300Y-90944300D02*
X92202000Y-93134000D01*
X89154000Y-90944300D02*
X90012300Y-90944300D01*
%TO.N,+3V3*%
X134620000Y-91694000D02*
X138844000Y-95918000D01*
X132334000Y-94046000D02*
X134620000Y-91760000D01*
X134620000Y-91760000D02*
X134620000Y-91694000D01*
X138844000Y-106134000D02*
X137668000Y-107310000D01*
X138844000Y-97536000D02*
X138844000Y-106134000D01*
X130048000Y-87122000D02*
X134620000Y-91694000D01*
X130981700Y-94046000D02*
X128880000Y-91944300D01*
X132334000Y-94046000D02*
X130981700Y-94046000D01*
X105918000Y-87122000D02*
X130048000Y-87122000D01*
%TO.N,Net-(C6-Pad1)*%
X89154000Y-92844300D02*
X87254000Y-90944300D01*
X89154000Y-93218000D02*
X89154000Y-92844300D01*
%TO.N,Net-(C6-Pad2)*%
X87254000Y-97463250D02*
X87254000Y-93218000D01*
X84618500Y-98898750D02*
X85818500Y-98898750D01*
D40*
%TO.N,Net-(J1-CC2)*%
X86130750Y-103148750D02*
X87609530Y-104627530D01*
X84618500Y-103148750D02*
X86130750Y-103148750D01*
%TO.N,D+*%
X87004450Y-102148750D02*
X88300000Y-103444300D01*
X84618500Y-102148750D02*
X87004450Y-102148750D01*
%TO.N,D-*%
X87326400Y-101903600D02*
X89333550Y-103910750D01*
X84618500Y-101648750D02*
X87071550Y-101648750D01*
X87071550Y-101648750D02*
X87326400Y-101903600D01*
%TO.N,D+*%
X86095550Y-101148750D02*
X86300000Y-100944300D01*
X84618500Y-101148750D02*
X86095550Y-101148750D01*
%TO.N,D-*%
X85595550Y-100648750D02*
X85901000Y-100343300D01*
X84618500Y-100648750D02*
X85595550Y-100648750D01*
%TO.N,Net-(J1-CC1)*%
X87242300Y-99942300D02*
X88625530Y-101325530D01*
X85731700Y-99942300D02*
X87242300Y-99942300D01*
X85525250Y-100148750D02*
X85731700Y-99942300D01*
X84618500Y-100148750D02*
X85525250Y-100148750D01*
%TO.N,Net-(D1-PadA)*%
X94300000Y-117668000D02*
X94234000Y-117602000D01*
X94300000Y-119444300D02*
X94300000Y-117668000D01*
X94300000Y-118944300D02*
X94212500Y-118856800D01*
X94300000Y-119444300D02*
X94300000Y-118944300D01*
%TO.N,SDA*%
X132920000Y-111064300D02*
X126340000Y-104484300D01*
%TO.N,IO20*%
X112718500Y-132082800D02*
X124885800Y-132082800D01*
X110370000Y-129734300D02*
X112718500Y-132082800D01*
%TO.N,IO21*%
X125331300Y-132483800D02*
X127840000Y-129975100D01*
%TO.N,IO1*%
X118739800Y-122845300D02*
X129110000Y-112475100D01*
%TO.N,IO22*%
X105290000Y-129734300D02*
X108440500Y-132884800D01*
%TO.N,RXD0*%
X134190000Y-130398600D02*
X134190000Y-129449300D01*
%TO.N,LED_OUT*%
X125300000Y-129449300D02*
X125300000Y-128500000D01*
%TO.N,BOOT_2*%
X119300000Y-131269300D02*
X114445000Y-131269300D01*
%TO.N,TXD0*%
X135460000Y-130398600D02*
X135460000Y-129449300D01*
%TO.N,Net-(IC1-ONTIME)*%
X107300000Y-92864300D02*
X108220000Y-91944300D01*
%TO.N,LED_OUT*%
X125145300Y-128345300D02*
X94653240Y-128345300D01*
%TO.N,BUZZER*%
X116902000Y-106045300D02*
X120345300Y-106045300D01*
%TO.N,IO2*%
X138000000Y-128500000D02*
X138000000Y-129449300D01*
%TO.N,BUZZER*%
X116800000Y-105943300D02*
X116902000Y-106045300D01*
%TO.N,IO22*%
X108440500Y-132884800D02*
X126623800Y-132884800D01*
X126623800Y-132884800D02*
X129110000Y-130398600D01*
X129110000Y-130398600D02*
X129110000Y-129449300D01*
%TO.N,IO21*%
X110579500Y-132483800D02*
X125331300Y-132483800D01*
X107830000Y-129734300D02*
X110579500Y-132483800D01*
%TO.N,IO0*%
X100210000Y-127194300D02*
X104158000Y-123246300D01*
%TO.N,TXD0*%
X131369800Y-134488800D02*
X135460000Y-130398600D01*
%TO.N,RXD0*%
X130500800Y-134087800D02*
X134190000Y-130398600D01*
X97670000Y-129734300D02*
X102023500Y-134087800D01*
%TO.N,IO23*%
X127492800Y-133285800D02*
X130380000Y-130398600D01*
%TO.N,IO1*%
X129110000Y-112475100D02*
X129110000Y-111949300D01*
%TO.N,IO2*%
X133949300Y-124449300D02*
X138000000Y-128500000D01*
%TO.N,RXD0*%
X102023500Y-134087800D02*
X130500800Y-134087800D01*
%TO.N,BOOT_2*%
X114445000Y-131269300D02*
X112910000Y-129734300D01*
X121120000Y-129449300D02*
X119300000Y-131269300D01*
%TO.N,IO23*%
X130380000Y-130398600D02*
X130380000Y-129449300D01*
%TO.N,IO20*%
X124885800Y-132082800D02*
X126570000Y-130398600D01*
%TO.N,IO23*%
X102750000Y-129734300D02*
X106301500Y-133285800D01*
%TO.N,IO20*%
X126570000Y-130398600D02*
X126570000Y-129449300D01*
%TO.N,BOOT_1*%
X115800000Y-121444300D02*
X119294300Y-121444300D01*
%TO.N,IO0*%
X130380000Y-112381450D02*
X130380000Y-111949300D01*
%TO.N,Net-(IC1-ONTIME)*%
X107300000Y-98119300D02*
X107300000Y-92864300D01*
%TO.N,TXD0*%
X99884500Y-134488800D02*
X131369800Y-134488800D01*
%TO.N,BOOT_1*%
X119294300Y-121444300D02*
X127840000Y-112898600D01*
%TO.N,IO23*%
X106301500Y-133285800D02*
X127492800Y-133285800D01*
%TO.N,IO21*%
X127840000Y-129975100D02*
X127840000Y-129449300D01*
%TO.N,IO1*%
X97670000Y-127194300D02*
X102019000Y-122845300D01*
%TO.N,JTAG_SIG*%
X100210000Y-129734300D02*
X104162500Y-133686800D01*
%TO.N,IO1*%
X102019000Y-122845300D02*
X118739800Y-122845300D01*
%TO.N,IO2*%
X113115000Y-124449300D02*
X133949300Y-124449300D01*
%TO.N,JTAG_SIG*%
X104162500Y-133686800D02*
X129208300Y-133686800D01*
%TO.N,IO0*%
X104158000Y-123246300D02*
X119515150Y-123246300D01*
%TO.N,LED_OUT*%
X92475000Y-126167060D02*
X92475000Y-119444300D01*
X94653240Y-128345300D02*
X92475000Y-126167060D01*
%TO.N,Net-(J2-+)*%
X114300000Y-109444300D02*
X114300000Y-112444300D01*
%TO.N,BUZZER*%
X125300000Y-111000000D02*
X125300000Y-111949300D01*
%TO.N,BOOT_2*%
X122760000Y-129449300D02*
X121120000Y-129449300D01*
%TO.N,TXD0*%
X95130000Y-129734300D02*
X99884500Y-134488800D01*
%TO.N,BOOT_1*%
X127840000Y-112898600D02*
X127840000Y-111949300D01*
%TO.N,IO2*%
X110370000Y-127194300D02*
X113115000Y-124449300D01*
%TO.N,JTAG_SIG*%
X132920000Y-129975100D02*
X132920000Y-129449300D01*
%TO.N,IO0*%
X119515150Y-123246300D02*
X130380000Y-112381450D01*
%TO.N,JTAG_SIG*%
X129208300Y-133686800D02*
X132920000Y-129975100D01*
%TO.N,LED_OUT*%
X125300000Y-128500000D02*
X125145300Y-128345300D01*
%TO.N,Net-(J2-+)*%
X114300000Y-112444300D02*
X110800000Y-115944300D01*
%TO.N,Net-(IC1-ONTIME)*%
X107300000Y-98119300D02*
X109800000Y-98119300D01*
%TO.N,MOTION*%
X113800000Y-91944300D02*
X118800000Y-96944300D01*
%TO.N,USER_BUTTON*%
X126045500Y-112999600D02*
X126570000Y-112475100D01*
X119300000Y-109294243D02*
X119300000Y-110377200D01*
X119401000Y-108695357D02*
X119401000Y-109193243D01*
X105466100Y-107345300D02*
X118050943Y-107345300D01*
X118050943Y-107345300D02*
X119401000Y-108695357D01*
X126570000Y-112475100D02*
X126570000Y-111949300D01*
X103053600Y-109757800D02*
X105466100Y-107345300D01*
X119401000Y-109193243D02*
X119300000Y-109294243D01*
X121922400Y-112999600D02*
X126045500Y-112999600D01*
%TO.N,BUZZER*%
X120345300Y-106045300D02*
X125300000Y-111000000D01*
%TO.N,USER_BUTTON*%
X119300000Y-110377200D02*
X121922400Y-112999600D01*
%TO.N,EN*%
X136700000Y-111919300D02*
X136730000Y-111949300D01*
X136730000Y-111000000D02*
X135200000Y-109470000D01*
X135200000Y-109470000D02*
X135200000Y-106944300D01*
X136730000Y-111949300D02*
X136730000Y-111000000D01*
X135200000Y-106944300D02*
X135200000Y-104444300D01*
%TO.N,D+*%
X105300000Y-106944300D02*
X118300000Y-106944300D01*
X118300000Y-106944300D02*
X122760000Y-111404300D01*
X103300000Y-108944300D02*
X105300000Y-106944300D01*
%TO.N,SCL*%
X123800000Y-103150000D02*
X123800000Y-91944300D01*
%TO.N,D-*%
X86699000Y-100343300D02*
X87117100Y-100761400D01*
%TO.N,MOTION*%
X113300000Y-91944300D02*
X113800000Y-91944300D01*
%TO.N,SDA*%
X121770300Y-124048300D02*
X132920000Y-112898600D01*
%TO.N,D-*%
X87117100Y-101694300D02*
X87326400Y-101903600D01*
%TO.N,SCL*%
X131650000Y-112898600D02*
X131650000Y-111949300D01*
%TO.N,D+*%
X87800000Y-102944300D02*
X88300000Y-103444300D01*
X122760000Y-111404300D02*
X122760000Y-111949300D01*
%TO.N,D-*%
X105133900Y-106543300D02*
X119573300Y-106543300D01*
%TO.N,SCL*%
X131650000Y-111000000D02*
X123800000Y-103150000D01*
%TO.N,D-*%
X124030000Y-111000000D02*
X124030000Y-111949300D01*
%TO.N,D+*%
X86800000Y-102944300D02*
X87800000Y-102944300D01*
%TO.N,SDA*%
X105290000Y-127194300D02*
X108436000Y-124048300D01*
X108436000Y-124048300D02*
X121770300Y-124048300D01*
%TO.N,MOTION*%
X118800000Y-96944300D02*
X118800000Y-105444300D01*
%TO.N,D+*%
X88300000Y-103444300D02*
X93800000Y-108944300D01*
%TO.N,D-*%
X89333550Y-103910750D02*
X93966100Y-108543300D01*
%TO.N,D+*%
X93800000Y-108944300D02*
X103300000Y-108944300D01*
%TO.N,SCL*%
X120901300Y-123647300D02*
X131650000Y-112898600D01*
X102750000Y-127194300D02*
X102950000Y-127194300D01*
%TO.N,D-*%
X93966100Y-108543300D02*
X103133900Y-108543300D01*
%TO.N,SDA*%
X126340000Y-104484300D02*
X126340000Y-94484300D01*
%TO.N,D-*%
X87117100Y-100761400D02*
X87117100Y-101694300D01*
X103133900Y-108543300D02*
X105133900Y-106543300D01*
%TO.N,SDA*%
X132920000Y-112898600D02*
X132920000Y-111949300D01*
X132920000Y-111949300D02*
X132920000Y-111064300D01*
%TO.N,SCL*%
X102750000Y-127194300D02*
X106297000Y-123647300D01*
%TO.N,D-*%
X85901000Y-100343300D02*
X86699000Y-100343300D01*
%TO.N,SCL*%
X106297000Y-123647300D02*
X120901300Y-123647300D01*
X131650000Y-111949300D02*
X131650000Y-111000000D01*
%TO.N,D-*%
X119573300Y-106543300D02*
X124030000Y-111000000D01*
%TD*%
M02*
