%TF.GenerationSoftware,KiCad,Pcbnew,9.0.1*%
%TF.CreationDate,2025-04-27T01:07:48-04:00*%
%TF.ProjectId,smart_stove_guard,736d6172-745f-4737-946f-76655f677561,rev?*%
%TF.SameCoordinates,Original*%
%TF.FileFunction,Copper,L2,Bot*%
%TF.FilePolarity,Positive*%
%FSLAX46Y46*%
G04 Gerber Fmt 4.6, Leading zero omitted, Abs format (unit mm)*
G04 Created by KiCad (PCBNEW 9.0.1) date 2025-04-27 01:07:48*
%MOMM*%
%LPD*%
G01*
G04 APERTURE LIST*
G04 Aperture macros list*
%AMFreePoly0*
4,1,125,0.047213,0.802995,0.047839,0.802929,0.094839,0.794929,0.095288,0.794831,0.140288,0.782831,0.140802,0.782664,0.184802,0.765664,0.185236,0.765472,0.227236,0.744472,0.227725,0.744192,0.267725,0.718192,0.268201,0.717841,0.304201,0.687841,0.304536,0.687536,0.337536,0.654536,0.337841,0.654201,0.367841,0.618201,0.368192,0.617725,0.394192,0.577725,0.394472,0.577236,
0.415472,0.535236,0.415664,0.534802,0.432664,0.490802,0.432831,0.490288,0.444831,0.445288,0.444929,0.444839,0.452929,0.397839,0.452995,0.397213,0.454995,0.350213,0.455000,0.350000,0.455000,-0.350000,0.454995,-0.350213,0.452995,-0.397213,0.452929,-0.397839,0.444929,-0.444839,0.444831,-0.445288,0.432831,-0.490288,0.432664,-0.490802,0.415664,-0.534802,0.415472,-0.535236,
0.394472,-0.577236,0.394192,-0.577725,0.368192,-0.617725,0.367841,-0.618201,0.337841,-0.654201,0.337536,-0.654536,0.304536,-0.687536,0.304201,-0.687841,0.268201,-0.717841,0.267725,-0.718192,0.227725,-0.744192,0.227236,-0.744472,0.185236,-0.765472,0.184802,-0.765664,0.140802,-0.782664,0.140288,-0.782831,0.095288,-0.794831,0.094839,-0.794929,0.047839,-0.802929,0.047213,-0.802995,
0.000213,-0.804995,-0.000213,-0.804995,-0.047213,-0.802995,-0.047839,-0.802929,-0.094839,-0.794929,-0.095288,-0.794831,-0.140288,-0.782831,-0.140802,-0.782664,-0.184802,-0.765664,-0.185236,-0.765472,-0.227236,-0.744472,-0.227725,-0.744192,-0.267725,-0.718192,-0.268201,-0.717841,-0.304201,-0.687841,-0.304536,-0.687536,-0.337536,-0.654536,-0.337841,-0.654201,-0.367841,-0.618201,-0.368192,-0.617725,
-0.394192,-0.577725,-0.394472,-0.577236,-0.415472,-0.535236,-0.415664,-0.534802,-0.432664,-0.490802,-0.432831,-0.490288,-0.444831,-0.445288,-0.444929,-0.444839,-0.452929,-0.397839,-0.452995,-0.397213,-0.454995,-0.350213,-0.455000,-0.350000,-0.455000,0.350000,-0.454995,0.350213,-0.452995,0.397213,-0.452929,0.397839,-0.444929,0.444839,-0.444831,0.445288,-0.432831,0.490288,-0.432664,0.490802,
-0.415664,0.534802,-0.415472,0.535236,-0.394472,0.577236,-0.394192,0.577725,-0.368192,0.617725,-0.367841,0.618201,-0.337841,0.654201,-0.337536,0.654536,-0.304536,0.687536,-0.304201,0.687841,-0.268201,0.717841,-0.267725,0.718192,-0.227725,0.744192,-0.227236,0.744472,-0.185236,0.765472,-0.184802,0.765664,-0.140802,0.782664,-0.140288,0.782831,-0.095288,0.794831,-0.094839,0.794929,
-0.047839,0.802929,-0.047213,0.802995,-0.000213,0.804995,0.000213,0.804995,0.047213,0.802995,0.047213,0.802995,$1*%
G04 Aperture macros list end*
%TA.AperFunction,ComponentPad*%
%ADD10O,1.300000X0.900000*%
%TD*%
%TA.AperFunction,ComponentPad*%
%ADD11FreePoly0,270.000000*%
%TD*%
%TA.AperFunction,ComponentPad*%
%ADD12C,1.700000*%
%TD*%
%TA.AperFunction,ComponentPad*%
%ADD13R,1.700000X1.700000*%
%TD*%
%TA.AperFunction,ComponentPad*%
%ADD14C,1.192000*%
%TD*%
%TA.AperFunction,ComponentPad*%
%ADD15C,1.198000*%
%TD*%
%TA.AperFunction,ComponentPad*%
%ADD16R,1.198000X1.198000*%
%TD*%
%TA.AperFunction,ComponentPad*%
%ADD17C,1.300000*%
%TD*%
%TA.AperFunction,ComponentPad*%
%ADD18R,1.300000X1.300000*%
%TD*%
%TA.AperFunction,ComponentPad*%
%ADD19C,1.600000*%
%TD*%
%TA.AperFunction,ViaPad*%
%ADD20C,0.600000*%
%TD*%
%TA.AperFunction,Conductor*%
%ADD21C,0.200000*%
%TD*%
%TA.AperFunction,Conductor*%
%ADD22C,0.500000*%
%TD*%
G04 APERTURE END LIST*
D10*
%TO.P,J1,S4,SHELL_GND*%
%TO.N,GND*%
X83838500Y-106048750D03*
%TO.P,J1,S3,SHELL_GND*%
X83838500Y-96748750D03*
D11*
%TO.P,J1,S2,SHELL_GND*%
X79518500Y-107318750D03*
%TO.P,J1,S1,SHELL_GND*%
X79518500Y-95478750D03*
%TD*%
D12*
%TO.P,J3,18,Pin_18*%
%TO.N,+3V3*%
X95130000Y-127194300D03*
%TO.P,J3,17,Pin_17*%
%TO.N,TXD0*%
X95130000Y-129734300D03*
%TO.P,J3,16,Pin_16*%
%TO.N,IO1*%
X97670000Y-127194300D03*
%TO.P,J3,15,Pin_15*%
%TO.N,RXD0*%
X97670000Y-129734300D03*
%TO.P,J3,14,Pin_14*%
%TO.N,IO0*%
X100210000Y-127194300D03*
%TO.P,J3,13,Pin_13*%
%TO.N,JTAG_SIG*%
X100210000Y-129734300D03*
%TO.P,J3,12,Pin_12*%
%TO.N,SCL*%
X102750000Y-127194300D03*
%TO.P,J3,11,Pin_11*%
%TO.N,IO23*%
X102750000Y-129734300D03*
%TO.P,J3,10,Pin_10*%
%TO.N,SDA*%
X105290000Y-127194300D03*
%TO.P,J3,9,Pin_9*%
%TO.N,IO22*%
X105290000Y-129734300D03*
%TO.P,J3,8,Pin_8*%
%TO.N,GND*%
X107830000Y-127194300D03*
%TO.P,J3,7,Pin_7*%
%TO.N,IO21*%
X107830000Y-129734300D03*
%TO.P,J3,6,Pin_6*%
%TO.N,IO2*%
X110370000Y-127194300D03*
%TO.P,J3,5,Pin_5*%
%TO.N,IO20*%
X110370000Y-129734300D03*
%TO.P,J3,4,Pin_4*%
%TO.N,IO3*%
X112910000Y-127194300D03*
%TO.P,J3,3,Pin_3*%
%TO.N,BOOT_2*%
X112910000Y-129734300D03*
%TO.P,J3,2,Pin_2*%
%TO.N,BOOT_1*%
X115450000Y-127194300D03*
D13*
%TO.P,J3,1,Pin_1*%
%TO.N,GND*%
X115450000Y-129734300D03*
%TD*%
D14*
%TO.P,IC1,4,REL*%
%TO.N,MOTION*%
X113300000Y-91948000D03*
%TO.P,IC1,3,VDD*%
%TO.N,Net-(IC1-VDD)*%
X110760000Y-94488000D03*
%TO.P,IC1,2,ONTIME*%
%TO.N,Net-(IC1-ONTIME)*%
X108220000Y-91948000D03*
%TO.P,IC1,1,VSS*%
%TO.N,GND*%
X110760000Y-89408000D03*
%TD*%
D15*
%TO.P,U2,4,VSS*%
%TO.N,GND*%
X126340000Y-89404300D03*
%TO.P,U2,3,VDD*%
%TO.N,+3V3*%
X128880000Y-91944300D03*
%TO.P,U2,2,SDA/PWM*%
%TO.N,SDA*%
X126340000Y-94484300D03*
D16*
%TO.P,U2,1,SCL/VZ*%
%TO.N,SCL*%
X123800000Y-91944300D03*
%TD*%
D17*
%TO.P,J2,2,-*%
%TO.N,GND*%
X104300000Y-115944300D03*
D18*
%TO.P,J2,1,+*%
%TO.N,Net-(J2-+)*%
X110800000Y-115944300D03*
%TD*%
D19*
%TO.P,S1,4,4*%
%TO.N,unconnected-(S1-Pad4)*%
X80800000Y-120944300D03*
%TO.P,S1,3,3*%
%TO.N,USER_BUTTON*%
X80800000Y-114444300D03*
%TO.P,S1,2,2*%
%TO.N,+3V3*%
X85300000Y-120944300D03*
%TO.P,S1,1,1*%
X85300000Y-114444300D03*
%TD*%
D20*
%TO.N,GND*%
X80264000Y-111760000D03*
X115800000Y-119619300D03*
X84618500Y-104898750D03*
X84618500Y-97898750D03*
X133300000Y-106944300D03*
X137668000Y-105410000D03*
X132334000Y-95946000D03*
X112300000Y-97944300D03*
X117300000Y-99844300D03*
X109800000Y-99944300D03*
X102870000Y-98552000D03*
X100090000Y-91490000D03*
X92202000Y-90254000D03*
X88900000Y-105918000D03*
X89916000Y-102616000D03*
%TO.N,MOTION*%
X124030000Y-129449300D03*
X123952000Y-127508000D03*
X119634000Y-125984000D03*
X118872000Y-120396000D03*
%TO.N,+3V3*%
X94257037Y-111021038D03*
X97536000Y-107696000D03*
%TO.N,GND*%
X92584000Y-117602000D03*
X132300000Y-117944300D03*
X139270000Y-129449300D03*
X134800000Y-120444300D03*
X119300000Y-129444300D03*
X134800000Y-119194300D03*
X133550000Y-120444300D03*
X134800000Y-117944300D03*
X133550000Y-117944300D03*
X133550000Y-119194300D03*
X132300000Y-120444300D03*
X132300000Y-119194300D03*
X139270000Y-111949300D03*
%TO.N,BOOT_1*%
X115800000Y-121444300D03*
%TO.N,BUZZER*%
X116800000Y-105943300D03*
%TO.N,D+*%
X86300000Y-100944300D03*
%TO.N,BUZZER*%
X116125000Y-109444300D03*
%TO.N,MOTION*%
X118800000Y-105444300D03*
X118800000Y-108944300D03*
%TO.N,D+*%
X86800000Y-102944300D03*
%TD*%
D21*
%TO.N,MOTION*%
X124030000Y-127586000D02*
X123952000Y-127508000D01*
X124030000Y-129449300D02*
X124030000Y-127586000D01*
X118872000Y-125222000D02*
X119634000Y-125984000D01*
X118872000Y-124206000D02*
X118872000Y-125222000D01*
X118872000Y-120396000D02*
X118872000Y-124206000D01*
D22*
%TO.N,+3V3*%
X97536000Y-107742075D02*
X94257037Y-111021038D01*
X97536000Y-107696000D02*
X97536000Y-107742075D01*
D21*
%TO.N,BOOT_1*%
X115450000Y-121794300D02*
X115800000Y-121444300D01*
X115450000Y-127194300D02*
X115450000Y-121794300D01*
%TO.N,BUZZER*%
X116125000Y-106118300D02*
X116125000Y-109444300D01*
X116800000Y-105943300D02*
X116300000Y-105943300D01*
X116300000Y-105943300D02*
X116125000Y-106118300D01*
%TO.N,D+*%
X86300000Y-102444300D02*
X86800000Y-102944300D01*
X86300000Y-100944300D02*
X86300000Y-102444300D01*
%TO.N,MOTION*%
X118800000Y-105444300D02*
X118800000Y-108944300D01*
%TD*%
%TA.AperFunction,Conductor*%
%TO.N,GND*%
G36*
X107364075Y-127387293D02*
G01*
X107429901Y-127501307D01*
X107522993Y-127594399D01*
X107637007Y-127660225D01*
X107700590Y-127677262D01*
X107068282Y-128309569D01*
X107068282Y-128309570D01*
X107122452Y-128348926D01*
X107122451Y-128348926D01*
X107131495Y-128353534D01*
X107182292Y-128401508D01*
X107199087Y-128469329D01*
X107176550Y-128535464D01*
X107131499Y-128574502D01*
X107122182Y-128579249D01*
X106950213Y-128704190D01*
X106799890Y-128854513D01*
X106674949Y-129026482D01*
X106670484Y-129035246D01*
X106622509Y-129086042D01*
X106554688Y-129102836D01*
X106488553Y-129080298D01*
X106449516Y-129035246D01*
X106445050Y-129026482D01*
X106320109Y-128854513D01*
X106169786Y-128704190D01*
X105997820Y-128579251D01*
X105997115Y-128578891D01*
X105989054Y-128574785D01*
X105938259Y-128526812D01*
X105921463Y-128458992D01*
X105943999Y-128392856D01*
X105989054Y-128353815D01*
X105997816Y-128349351D01*
X106087020Y-128284541D01*
X106169786Y-128224409D01*
X106169788Y-128224406D01*
X106169792Y-128224404D01*
X106320104Y-128074092D01*
X106320106Y-128074088D01*
X106320109Y-128074086D01*
X106405890Y-127956017D01*
X106445051Y-127902116D01*
X106449793Y-127892808D01*
X106497763Y-127842011D01*
X106565583Y-127825211D01*
X106631719Y-127847745D01*
X106670763Y-127892800D01*
X106675373Y-127901847D01*
X106714728Y-127956016D01*
X107347037Y-127323708D01*
X107364075Y-127387293D01*
G37*
%TD.AperFunction*%
%TA.AperFunction,Conductor*%
G36*
X108945270Y-127956017D02*
G01*
X108945270Y-127956016D01*
X108984622Y-127901855D01*
X108989232Y-127892807D01*
X109037205Y-127842009D01*
X109105025Y-127825212D01*
X109171161Y-127847747D01*
X109210204Y-127892804D01*
X109214949Y-127902117D01*
X109339890Y-128074086D01*
X109490213Y-128224409D01*
X109662182Y-128349350D01*
X109670946Y-128353816D01*
X109721742Y-128401791D01*
X109738536Y-128469612D01*
X109715998Y-128535747D01*
X109670946Y-128574784D01*
X109662182Y-128579249D01*
X109490213Y-128704190D01*
X109339890Y-128854513D01*
X109214949Y-129026482D01*
X109210484Y-129035246D01*
X109162509Y-129086042D01*
X109094688Y-129102836D01*
X109028553Y-129080298D01*
X108989516Y-129035246D01*
X108985050Y-129026482D01*
X108860109Y-128854513D01*
X108709786Y-128704190D01*
X108537817Y-128579249D01*
X108528504Y-128574504D01*
X108477707Y-128526530D01*
X108460912Y-128458709D01*
X108483449Y-128392574D01*
X108528507Y-128353532D01*
X108537555Y-128348922D01*
X108591716Y-128309570D01*
X108591717Y-128309570D01*
X107959408Y-127677262D01*
X108022993Y-127660225D01*
X108137007Y-127594399D01*
X108230099Y-127501307D01*
X108295925Y-127387293D01*
X108312962Y-127323709D01*
X108945270Y-127956017D01*
G37*
%TD.AperFunction*%
%TA.AperFunction,Conductor*%
G36*
X147524539Y-85520185D02*
G01*
X147570294Y-85572989D01*
X147581500Y-85624500D01*
X147581500Y-109500323D01*
X147581494Y-109501588D01*
X147321252Y-135005265D01*
X147300884Y-135072100D01*
X147247616Y-135117314D01*
X147197258Y-135128000D01*
X78862907Y-135128000D01*
X78795868Y-135108315D01*
X78750113Y-135055511D01*
X78738912Y-135005097D01*
X78726874Y-133644838D01*
X78709705Y-131704711D01*
X80191500Y-131704711D01*
X80191500Y-131947288D01*
X80223161Y-132187785D01*
X80285947Y-132422104D01*
X80378773Y-132646205D01*
X80378776Y-132646212D01*
X80500064Y-132856289D01*
X80500066Y-132856292D01*
X80500067Y-132856293D01*
X80647733Y-133048736D01*
X80647739Y-133048743D01*
X80819256Y-133220260D01*
X80819262Y-133220265D01*
X81011711Y-133367936D01*
X81221788Y-133489224D01*
X81445900Y-133582054D01*
X81680211Y-133644838D01*
X81860586Y-133668584D01*
X81920711Y-133676500D01*
X81920712Y-133676500D01*
X82163289Y-133676500D01*
X82211388Y-133670167D01*
X82403789Y-133644838D01*
X82638100Y-133582054D01*
X82862212Y-133489224D01*
X83072289Y-133367936D01*
X83264738Y-133220265D01*
X83436265Y-133048738D01*
X83583936Y-132856289D01*
X83705224Y-132646212D01*
X83798054Y-132422100D01*
X83860838Y-132187789D01*
X83892500Y-131947288D01*
X83892500Y-131704712D01*
X83860838Y-131464211D01*
X83798054Y-131229900D01*
X83705224Y-131005788D01*
X83583936Y-130795711D01*
X83504104Y-130691672D01*
X83436266Y-130603263D01*
X83436260Y-130603256D01*
X83264743Y-130431739D01*
X83264736Y-130431733D01*
X83072293Y-130284067D01*
X83072292Y-130284066D01*
X83072289Y-130284064D01*
X82862212Y-130162776D01*
X82862205Y-130162773D01*
X82638104Y-130069947D01*
X82403785Y-130007161D01*
X82163289Y-129975500D01*
X82163288Y-129975500D01*
X81920712Y-129975500D01*
X81920711Y-129975500D01*
X81680214Y-130007161D01*
X81445895Y-130069947D01*
X81221794Y-130162773D01*
X81221785Y-130162777D01*
X81011706Y-130284067D01*
X80819263Y-130431733D01*
X80819256Y-130431739D01*
X80647739Y-130603256D01*
X80647733Y-130603263D01*
X80500067Y-130795706D01*
X80378777Y-131005785D01*
X80378773Y-131005794D01*
X80285947Y-131229895D01*
X80223161Y-131464214D01*
X80191500Y-131704711D01*
X78709705Y-131704711D01*
X78668849Y-127088013D01*
X93779500Y-127088013D01*
X93779500Y-127300586D01*
X93795826Y-127403668D01*
X93812754Y-127510543D01*
X93837546Y-127586846D01*
X93878444Y-127712714D01*
X93974951Y-127902120D01*
X94099890Y-128074086D01*
X94250213Y-128224409D01*
X94422182Y-128349350D01*
X94430946Y-128353816D01*
X94481742Y-128401791D01*
X94498536Y-128469612D01*
X94475998Y-128535747D01*
X94430946Y-128574784D01*
X94422182Y-128579249D01*
X94250213Y-128704190D01*
X94099890Y-128854513D01*
X93974951Y-129026479D01*
X93878444Y-129215885D01*
X93812753Y-129418060D01*
X93811291Y-129427293D01*
X93779500Y-129628013D01*
X93779500Y-129840587D01*
X93812754Y-130050543D01*
X93867501Y-130219037D01*
X93878444Y-130252714D01*
X93974951Y-130442120D01*
X94099890Y-130614086D01*
X94250213Y-130764409D01*
X94422179Y-130889348D01*
X94422181Y-130889349D01*
X94422184Y-130889351D01*
X94611588Y-130985857D01*
X94813757Y-131051546D01*
X95023713Y-131084800D01*
X95023714Y-131084800D01*
X95236286Y-131084800D01*
X95236287Y-131084800D01*
X95446243Y-131051546D01*
X95648412Y-130985857D01*
X95837816Y-130889351D01*
X95924478Y-130826388D01*
X96009786Y-130764409D01*
X96009788Y-130764406D01*
X96009792Y-130764404D01*
X96160104Y-130614092D01*
X96160106Y-130614088D01*
X96160109Y-130614086D01*
X96285048Y-130442120D01*
X96285047Y-130442120D01*
X96285051Y-130442116D01*
X96289514Y-130433354D01*
X96337488Y-130382559D01*
X96405308Y-130365763D01*
X96471444Y-130388299D01*
X96510486Y-130433356D01*
X96514951Y-130442120D01*
X96639890Y-130614086D01*
X96790213Y-130764409D01*
X96962179Y-130889348D01*
X96962181Y-130889349D01*
X96962184Y-130889351D01*
X97151588Y-130985857D01*
X97353757Y-131051546D01*
X97563713Y-131084800D01*
X97563714Y-131084800D01*
X97776286Y-131084800D01*
X97776287Y-131084800D01*
X97986243Y-131051546D01*
X98188412Y-130985857D01*
X98377816Y-130889351D01*
X98464478Y-130826388D01*
X98549786Y-130764409D01*
X98549788Y-130764406D01*
X98549792Y-130764404D01*
X98700104Y-130614092D01*
X98700106Y-130614088D01*
X98700109Y-130614086D01*
X98825048Y-130442120D01*
X98825047Y-130442120D01*
X98825051Y-130442116D01*
X98829514Y-130433354D01*
X98877488Y-130382559D01*
X98945308Y-130365763D01*
X99011444Y-130388299D01*
X99050486Y-130433356D01*
X99054951Y-130442120D01*
X99179890Y-130614086D01*
X99330213Y-130764409D01*
X99502179Y-130889348D01*
X99502181Y-130889349D01*
X99502184Y-130889351D01*
X99691588Y-130985857D01*
X99893757Y-131051546D01*
X100103713Y-131084800D01*
X100103714Y-131084800D01*
X100316286Y-131084800D01*
X100316287Y-131084800D01*
X100526243Y-131051546D01*
X100728412Y-130985857D01*
X100917816Y-130889351D01*
X101004478Y-130826388D01*
X101089786Y-130764409D01*
X101089788Y-130764406D01*
X101089792Y-130764404D01*
X101240104Y-130614092D01*
X101240106Y-130614088D01*
X101240109Y-130614086D01*
X101365048Y-130442120D01*
X101365047Y-130442120D01*
X101365051Y-130442116D01*
X101369514Y-130433354D01*
X101417488Y-130382559D01*
X101485308Y-130365763D01*
X101551444Y-130388299D01*
X101590486Y-130433356D01*
X101594951Y-130442120D01*
X101719890Y-130614086D01*
X101870213Y-130764409D01*
X102042179Y-130889348D01*
X102042181Y-130889349D01*
X102042184Y-130889351D01*
X102231588Y-130985857D01*
X102433757Y-131051546D01*
X102643713Y-131084800D01*
X102643714Y-131084800D01*
X102856286Y-131084800D01*
X102856287Y-131084800D01*
X103066243Y-131051546D01*
X103268412Y-130985857D01*
X103457816Y-130889351D01*
X103544478Y-130826388D01*
X103629786Y-130764409D01*
X103629788Y-130764406D01*
X103629792Y-130764404D01*
X103780104Y-130614092D01*
X103780106Y-130614088D01*
X103780109Y-130614086D01*
X103905048Y-130442120D01*
X103905047Y-130442120D01*
X103905051Y-130442116D01*
X103909514Y-130433354D01*
X103957488Y-130382559D01*
X104025308Y-130365763D01*
X104091444Y-130388299D01*
X104130486Y-130433356D01*
X104134951Y-130442120D01*
X104259890Y-130614086D01*
X104410213Y-130764409D01*
X104582179Y-130889348D01*
X104582181Y-130889349D01*
X104582184Y-130889351D01*
X104771588Y-130985857D01*
X104973757Y-131051546D01*
X105183713Y-131084800D01*
X105183714Y-131084800D01*
X105396286Y-131084800D01*
X105396287Y-131084800D01*
X105606243Y-131051546D01*
X105808412Y-130985857D01*
X105997816Y-130889351D01*
X106084478Y-130826388D01*
X106169786Y-130764409D01*
X106169788Y-130764406D01*
X106169792Y-130764404D01*
X106320104Y-130614092D01*
X106320106Y-130614088D01*
X106320109Y-130614086D01*
X106445048Y-130442120D01*
X106445047Y-130442120D01*
X106445051Y-130442116D01*
X106449514Y-130433354D01*
X106497488Y-130382559D01*
X106565308Y-130365763D01*
X106631444Y-130388299D01*
X106670486Y-130433356D01*
X106674951Y-130442120D01*
X106799890Y-130614086D01*
X106950213Y-130764409D01*
X107122179Y-130889348D01*
X107122181Y-130889349D01*
X107122184Y-130889351D01*
X107311588Y-130985857D01*
X107513757Y-131051546D01*
X107723713Y-131084800D01*
X107723714Y-131084800D01*
X107936286Y-131084800D01*
X107936287Y-131084800D01*
X108146243Y-131051546D01*
X108348412Y-130985857D01*
X108537816Y-130889351D01*
X108624478Y-130826388D01*
X108709786Y-130764409D01*
X108709788Y-130764406D01*
X108709792Y-130764404D01*
X108860104Y-130614092D01*
X108860106Y-130614088D01*
X108860109Y-130614086D01*
X108985048Y-130442120D01*
X108985047Y-130442120D01*
X108985051Y-130442116D01*
X108989514Y-130433354D01*
X109037488Y-130382559D01*
X109105308Y-130365763D01*
X109171444Y-130388299D01*
X109210486Y-130433356D01*
X109214951Y-130442120D01*
X109339890Y-130614086D01*
X109490213Y-130764409D01*
X109662179Y-130889348D01*
X109662181Y-130889349D01*
X109662184Y-130889351D01*
X109851588Y-130985857D01*
X110053757Y-131051546D01*
X110263713Y-131084800D01*
X110263714Y-131084800D01*
X110476286Y-131084800D01*
X110476287Y-131084800D01*
X110686243Y-131051546D01*
X110888412Y-130985857D01*
X111077816Y-130889351D01*
X111164478Y-130826388D01*
X111249786Y-130764409D01*
X111249788Y-130764406D01*
X111249792Y-130764404D01*
X111400104Y-130614092D01*
X111400106Y-130614088D01*
X111400109Y-130614086D01*
X111525048Y-130442120D01*
X111525047Y-130442120D01*
X111525051Y-130442116D01*
X111529514Y-130433354D01*
X111577488Y-130382559D01*
X111645308Y-130365763D01*
X111711444Y-130388299D01*
X111750486Y-130433356D01*
X111754951Y-130442120D01*
X111879890Y-130614086D01*
X112030213Y-130764409D01*
X112202179Y-130889348D01*
X112202181Y-130889349D01*
X112202184Y-130889351D01*
X112391588Y-130985857D01*
X112593757Y-131051546D01*
X112803713Y-131084800D01*
X112803714Y-131084800D01*
X113016286Y-131084800D01*
X113016287Y-131084800D01*
X113226243Y-131051546D01*
X113428412Y-130985857D01*
X113617816Y-130889351D01*
X113704478Y-130826388D01*
X113789784Y-130764410D01*
X113789784Y-130764409D01*
X113789792Y-130764404D01*
X113903717Y-130650478D01*
X113965036Y-130616996D01*
X114034728Y-130621980D01*
X114090662Y-130663851D01*
X114107577Y-130694828D01*
X114156646Y-130826388D01*
X114156649Y-130826393D01*
X114242809Y-130941487D01*
X114242812Y-130941490D01*
X114357906Y-131027650D01*
X114357913Y-131027654D01*
X114492620Y-131077896D01*
X114492627Y-131077898D01*
X114552155Y-131084299D01*
X114552172Y-131084300D01*
X115200000Y-131084300D01*
X115200000Y-130167312D01*
X115257007Y-130200225D01*
X115384174Y-130234300D01*
X115515826Y-130234300D01*
X115642993Y-130200225D01*
X115700000Y-130167312D01*
X115700000Y-131084300D01*
X116347828Y-131084300D01*
X116347844Y-131084299D01*
X116407372Y-131077898D01*
X116407379Y-131077896D01*
X116542086Y-131027654D01*
X116542093Y-131027650D01*
X116657187Y-130941490D01*
X116657190Y-130941487D01*
X116743350Y-130826393D01*
X116743354Y-130826386D01*
X116793596Y-130691679D01*
X116793598Y-130691672D01*
X116799999Y-130632144D01*
X116800000Y-130632127D01*
X116800000Y-129984300D01*
X115883012Y-129984300D01*
X115915925Y-129927293D01*
X115950000Y-129800126D01*
X115950000Y-129668474D01*
X115915925Y-129541307D01*
X115883012Y-129484300D01*
X116800000Y-129484300D01*
X116800000Y-128836472D01*
X116799999Y-128836455D01*
X116793598Y-128776927D01*
X116793596Y-128776920D01*
X116743354Y-128642213D01*
X116743350Y-128642206D01*
X116657190Y-128527112D01*
X116657187Y-128527109D01*
X116542093Y-128440949D01*
X116542088Y-128440946D01*
X116410528Y-128391877D01*
X116354595Y-128350005D01*
X116330178Y-128284541D01*
X116345030Y-128216268D01*
X116366175Y-128188020D01*
X116480104Y-128074092D01*
X116520649Y-128018287D01*
X116605048Y-127902120D01*
X116605047Y-127902120D01*
X116605051Y-127902116D01*
X116701557Y-127712712D01*
X116767246Y-127510543D01*
X116780137Y-127429153D01*
X123151500Y-127429153D01*
X123151500Y-127586846D01*
X123182261Y-127741489D01*
X123182264Y-127741501D01*
X123242602Y-127887172D01*
X123242609Y-127887185D01*
X123330209Y-128018287D01*
X123330210Y-128018288D01*
X123330211Y-128018289D01*
X123393182Y-128081260D01*
X123426666Y-128142581D01*
X123429500Y-128168940D01*
X123429500Y-128869534D01*
X123409815Y-128936573D01*
X123408602Y-128938425D01*
X123320609Y-129070114D01*
X123320602Y-129070127D01*
X123260264Y-129215798D01*
X123260261Y-129215810D01*
X123229500Y-129370453D01*
X123229500Y-129528146D01*
X123260261Y-129682789D01*
X123260264Y-129682801D01*
X123320602Y-129828472D01*
X123320609Y-129828485D01*
X123408210Y-129959588D01*
X123408213Y-129959592D01*
X123519707Y-130071086D01*
X123519711Y-130071089D01*
X123650814Y-130158690D01*
X123650827Y-130158697D01*
X123751086Y-130200225D01*
X123796503Y-130219037D01*
X123951153Y-130249799D01*
X123951156Y-130249800D01*
X123951158Y-130249800D01*
X124108844Y-130249800D01*
X124108845Y-130249799D01*
X124263497Y-130219037D01*
X124399324Y-130162776D01*
X124409172Y-130158697D01*
X124409172Y-130158696D01*
X124409179Y-130158694D01*
X124540289Y-130071089D01*
X124651789Y-129959589D01*
X124739394Y-129828479D01*
X124799737Y-129682797D01*
X124830500Y-129528142D01*
X124830500Y-129370458D01*
X124830500Y-129370455D01*
X124830499Y-129370453D01*
X124799738Y-129215810D01*
X124799737Y-129215803D01*
X124745989Y-129086042D01*
X124739397Y-129070127D01*
X124739390Y-129070114D01*
X124651398Y-128938425D01*
X124630520Y-128871747D01*
X124630500Y-128869534D01*
X124630500Y-127971030D01*
X124650185Y-127903991D01*
X124651399Y-127902137D01*
X124661394Y-127887179D01*
X124721737Y-127741497D01*
X124752500Y-127586842D01*
X124752500Y-127429158D01*
X124752500Y-127429155D01*
X124752499Y-127429153D01*
X124721738Y-127274510D01*
X124721737Y-127274503D01*
X124715782Y-127260126D01*
X124661397Y-127128827D01*
X124661390Y-127128814D01*
X124573789Y-126997711D01*
X124573786Y-126997707D01*
X124462292Y-126886213D01*
X124462288Y-126886210D01*
X124331185Y-126798609D01*
X124331172Y-126798602D01*
X124185501Y-126738264D01*
X124185489Y-126738261D01*
X124030845Y-126707500D01*
X124030842Y-126707500D01*
X123873158Y-126707500D01*
X123873155Y-126707500D01*
X123718510Y-126738261D01*
X123718498Y-126738264D01*
X123572827Y-126798602D01*
X123572814Y-126798609D01*
X123441711Y-126886210D01*
X123441707Y-126886213D01*
X123330213Y-126997707D01*
X123330210Y-126997711D01*
X123242609Y-127128814D01*
X123242602Y-127128827D01*
X123182264Y-127274498D01*
X123182261Y-127274510D01*
X123151500Y-127429153D01*
X116780137Y-127429153D01*
X116800500Y-127300587D01*
X116800500Y-127088013D01*
X116767246Y-126878057D01*
X116701557Y-126675888D01*
X116605051Y-126486484D01*
X116605049Y-126486481D01*
X116605048Y-126486479D01*
X116480109Y-126314513D01*
X116329786Y-126164190D01*
X116157815Y-126039248D01*
X116157814Y-126039247D01*
X116118205Y-126019065D01*
X116067409Y-125971091D01*
X116050500Y-125908581D01*
X116050500Y-122289848D01*
X116070185Y-122222809D01*
X116122989Y-122177054D01*
X116127048Y-122175287D01*
X116179179Y-122153694D01*
X116310289Y-122066089D01*
X116421789Y-121954589D01*
X116509394Y-121823479D01*
X116569737Y-121677797D01*
X116600500Y-121523142D01*
X116600500Y-121365458D01*
X116600500Y-121365455D01*
X116600499Y-121365453D01*
X116569738Y-121210810D01*
X116569738Y-121210808D01*
X116569737Y-121210803D01*
X116569735Y-121210798D01*
X116509397Y-121065127D01*
X116509390Y-121065114D01*
X116421789Y-120934011D01*
X116421786Y-120934007D01*
X116310292Y-120822513D01*
X116310288Y-120822510D01*
X116179185Y-120734909D01*
X116179172Y-120734902D01*
X116033501Y-120674564D01*
X116033489Y-120674561D01*
X115878845Y-120643800D01*
X115878842Y-120643800D01*
X115721158Y-120643800D01*
X115721155Y-120643800D01*
X115566510Y-120674561D01*
X115566498Y-120674564D01*
X115420827Y-120734902D01*
X115420814Y-120734909D01*
X115289711Y-120822510D01*
X115289707Y-120822513D01*
X115178213Y-120934007D01*
X115178210Y-120934011D01*
X115090609Y-121065114D01*
X115090602Y-121065127D01*
X115030264Y-121210798D01*
X115030261Y-121210808D01*
X114999362Y-121366148D01*
X114983767Y-121406262D01*
X114976005Y-121419058D01*
X114969480Y-121425584D01*
X114919360Y-121512395D01*
X114918718Y-121513506D01*
X114918684Y-121513563D01*
X114890425Y-121562509D01*
X114890424Y-121562510D01*
X114890423Y-121562515D01*
X114849499Y-121715243D01*
X114849499Y-121715245D01*
X114849499Y-121883346D01*
X114849500Y-121883359D01*
X114849500Y-125908581D01*
X114829815Y-125975620D01*
X114781795Y-126019065D01*
X114742185Y-126039247D01*
X114742184Y-126039248D01*
X114570213Y-126164190D01*
X114419890Y-126314513D01*
X114294949Y-126486482D01*
X114290484Y-126495246D01*
X114242509Y-126546042D01*
X114174688Y-126562836D01*
X114108553Y-126540298D01*
X114069516Y-126495246D01*
X114065050Y-126486482D01*
X113940109Y-126314513D01*
X113789786Y-126164190D01*
X113617820Y-126039251D01*
X113428414Y-125942744D01*
X113428413Y-125942743D01*
X113428412Y-125942743D01*
X113226243Y-125877054D01*
X113226241Y-125877053D01*
X113226240Y-125877053D01*
X113064957Y-125851508D01*
X113016287Y-125843800D01*
X112803713Y-125843800D01*
X112755042Y-125851508D01*
X112593760Y-125877053D01*
X112391585Y-125942744D01*
X112202179Y-126039251D01*
X112030213Y-126164190D01*
X111879890Y-126314513D01*
X111754949Y-126486482D01*
X111750484Y-126495246D01*
X111702509Y-126546042D01*
X111634688Y-126562836D01*
X111568553Y-126540298D01*
X111529516Y-126495246D01*
X111525050Y-126486482D01*
X111400109Y-126314513D01*
X111249786Y-126164190D01*
X111077820Y-126039251D01*
X110888414Y-125942744D01*
X110888413Y-125942743D01*
X110888412Y-125942743D01*
X110686243Y-125877054D01*
X110686241Y-125877053D01*
X110686240Y-125877053D01*
X110524957Y-125851508D01*
X110476287Y-125843800D01*
X110263713Y-125843800D01*
X110215042Y-125851508D01*
X110053760Y-125877053D01*
X109851585Y-125942744D01*
X109662179Y-126039251D01*
X109490213Y-126164190D01*
X109339890Y-126314513D01*
X109214949Y-126486482D01*
X109210202Y-126495799D01*
X109162227Y-126546593D01*
X109094405Y-126563387D01*
X109028271Y-126540848D01*
X108989234Y-126495795D01*
X108984626Y-126486752D01*
X108945270Y-126432582D01*
X108945269Y-126432582D01*
X108312962Y-127064890D01*
X108295925Y-127001307D01*
X108230099Y-126887293D01*
X108137007Y-126794201D01*
X108022993Y-126728375D01*
X107959409Y-126711337D01*
X108591716Y-126079028D01*
X108537550Y-126039675D01*
X108348217Y-125943204D01*
X108146129Y-125877542D01*
X107936246Y-125844300D01*
X107723754Y-125844300D01*
X107513872Y-125877542D01*
X107513869Y-125877542D01*
X107311782Y-125943204D01*
X107122439Y-126039680D01*
X107068282Y-126079027D01*
X107068282Y-126079028D01*
X107700591Y-126711337D01*
X107637007Y-126728375D01*
X107522993Y-126794201D01*
X107429901Y-126887293D01*
X107364075Y-127001307D01*
X107347037Y-127064891D01*
X106714728Y-126432582D01*
X106714727Y-126432582D01*
X106675380Y-126486740D01*
X106675376Y-126486746D01*
X106670760Y-126495805D01*
X106622781Y-126546597D01*
X106554959Y-126563387D01*
X106488826Y-126540843D01*
X106449794Y-126495793D01*
X106445051Y-126486484D01*
X106445049Y-126486481D01*
X106445048Y-126486479D01*
X106320109Y-126314513D01*
X106169786Y-126164190D01*
X105997820Y-126039251D01*
X105808414Y-125942744D01*
X105808413Y-125942743D01*
X105808412Y-125942743D01*
X105606243Y-125877054D01*
X105606241Y-125877053D01*
X105606240Y-125877053D01*
X105444957Y-125851508D01*
X105396287Y-125843800D01*
X105183713Y-125843800D01*
X105135042Y-125851508D01*
X104973760Y-125877053D01*
X104771585Y-125942744D01*
X104582179Y-126039251D01*
X104410213Y-126164190D01*
X104259890Y-126314513D01*
X104134949Y-126486482D01*
X104130484Y-126495246D01*
X104082509Y-126546042D01*
X104014688Y-126562836D01*
X103948553Y-126540298D01*
X103909516Y-126495246D01*
X103905050Y-126486482D01*
X103780109Y-126314513D01*
X103629786Y-126164190D01*
X103457820Y-126039251D01*
X103268414Y-125942744D01*
X103268413Y-125942743D01*
X103268412Y-125942743D01*
X103066243Y-125877054D01*
X103066241Y-125877053D01*
X103066240Y-125877053D01*
X102904957Y-125851508D01*
X102856287Y-125843800D01*
X102643713Y-125843800D01*
X102595042Y-125851508D01*
X102433760Y-125877053D01*
X102231585Y-125942744D01*
X102042179Y-126039251D01*
X101870213Y-126164190D01*
X101719890Y-126314513D01*
X101594949Y-126486482D01*
X101590484Y-126495246D01*
X101542509Y-126546042D01*
X101474688Y-126562836D01*
X101408553Y-126540298D01*
X101369516Y-126495246D01*
X101365050Y-126486482D01*
X101240109Y-126314513D01*
X101089786Y-126164190D01*
X100917820Y-126039251D01*
X100728414Y-125942744D01*
X100728413Y-125942743D01*
X100728412Y-125942743D01*
X100526243Y-125877054D01*
X100526241Y-125877053D01*
X100526240Y-125877053D01*
X100364957Y-125851508D01*
X100316287Y-125843800D01*
X100103713Y-125843800D01*
X100055042Y-125851508D01*
X99893760Y-125877053D01*
X99691585Y-125942744D01*
X99502179Y-126039251D01*
X99330213Y-126164190D01*
X99179890Y-126314513D01*
X99054949Y-126486482D01*
X99050484Y-126495246D01*
X99002509Y-126546042D01*
X98934688Y-126562836D01*
X98868553Y-126540298D01*
X98829516Y-126495246D01*
X98825050Y-126486482D01*
X98700109Y-126314513D01*
X98549786Y-126164190D01*
X98377820Y-126039251D01*
X98188414Y-125942744D01*
X98188413Y-125942743D01*
X98188412Y-125942743D01*
X97986243Y-125877054D01*
X97986241Y-125877053D01*
X97986240Y-125877053D01*
X97824957Y-125851508D01*
X97776287Y-125843800D01*
X97563713Y-125843800D01*
X97515042Y-125851508D01*
X97353760Y-125877053D01*
X97151585Y-125942744D01*
X96962179Y-126039251D01*
X96790213Y-126164190D01*
X96639890Y-126314513D01*
X96514949Y-126486482D01*
X96510484Y-126495246D01*
X96462509Y-126546042D01*
X96394688Y-126562836D01*
X96328553Y-126540298D01*
X96289516Y-126495246D01*
X96285050Y-126486482D01*
X96160109Y-126314513D01*
X96009786Y-126164190D01*
X95837820Y-126039251D01*
X95648414Y-125942744D01*
X95648413Y-125942743D01*
X95648412Y-125942743D01*
X95446243Y-125877054D01*
X95446241Y-125877053D01*
X95446240Y-125877053D01*
X95284957Y-125851508D01*
X95236287Y-125843800D01*
X95023713Y-125843800D01*
X94975042Y-125851508D01*
X94813760Y-125877053D01*
X94611585Y-125942744D01*
X94422179Y-126039251D01*
X94250213Y-126164190D01*
X94099890Y-126314513D01*
X93974951Y-126486479D01*
X93878444Y-126675885D01*
X93812753Y-126878060D01*
X93779500Y-127088013D01*
X78668849Y-127088013D01*
X78613574Y-120841948D01*
X79499500Y-120841948D01*
X79499500Y-121046651D01*
X79531522Y-121248834D01*
X79594781Y-121443523D01*
X79687715Y-121625913D01*
X79808028Y-121791513D01*
X79952786Y-121936271D01*
X80107749Y-122048856D01*
X80118390Y-122056587D01*
X80234607Y-122115803D01*
X80300776Y-122149518D01*
X80300778Y-122149518D01*
X80300781Y-122149520D01*
X80380084Y-122175287D01*
X80495465Y-122212777D01*
X80596557Y-122228788D01*
X80697648Y-122244800D01*
X80697649Y-122244800D01*
X80902351Y-122244800D01*
X80902352Y-122244800D01*
X81104534Y-122212777D01*
X81299219Y-122149520D01*
X81481610Y-122056587D01*
X81574590Y-121989032D01*
X81647213Y-121936271D01*
X81647215Y-121936268D01*
X81647219Y-121936266D01*
X81791966Y-121791519D01*
X81791968Y-121791515D01*
X81791971Y-121791513D01*
X81874595Y-121677789D01*
X81912287Y-121625910D01*
X82005220Y-121443519D01*
X82068477Y-121248834D01*
X82100500Y-121046652D01*
X82100500Y-120841948D01*
X83999500Y-120841948D01*
X83999500Y-121046651D01*
X84031522Y-121248834D01*
X84094781Y-121443523D01*
X84187715Y-121625913D01*
X84308028Y-121791513D01*
X84452786Y-121936271D01*
X84607749Y-122048856D01*
X84618390Y-122056587D01*
X84734607Y-122115803D01*
X84800776Y-122149518D01*
X84800778Y-122149518D01*
X84800781Y-122149520D01*
X84880084Y-122175287D01*
X84995465Y-122212777D01*
X85096557Y-122228788D01*
X85197648Y-122244800D01*
X85197649Y-122244800D01*
X85402351Y-122244800D01*
X85402352Y-122244800D01*
X85604534Y-122212777D01*
X85799219Y-122149520D01*
X85981610Y-122056587D01*
X86074590Y-121989032D01*
X86147213Y-121936271D01*
X86147215Y-121936268D01*
X86147219Y-121936266D01*
X86291966Y-121791519D01*
X86291968Y-121791515D01*
X86291971Y-121791513D01*
X86374595Y-121677789D01*
X86412287Y-121625910D01*
X86505220Y-121443519D01*
X86568477Y-121248834D01*
X86600500Y-121046652D01*
X86600500Y-120841948D01*
X86573989Y-120674564D01*
X86568477Y-120639765D01*
X86556388Y-120602561D01*
X86505220Y-120445081D01*
X86440037Y-120317153D01*
X118071500Y-120317153D01*
X118071500Y-120474846D01*
X118102261Y-120629489D01*
X118102264Y-120629501D01*
X118162602Y-120775172D01*
X118162609Y-120775185D01*
X118250602Y-120906874D01*
X118271480Y-120973551D01*
X118271500Y-120975765D01*
X118271500Y-125135330D01*
X118271499Y-125135348D01*
X118271499Y-125301054D01*
X118271498Y-125301054D01*
X118312423Y-125453786D01*
X118326820Y-125478720D01*
X118326821Y-125478725D01*
X118326823Y-125478725D01*
X118391479Y-125590714D01*
X118391481Y-125590717D01*
X118510349Y-125709585D01*
X118510355Y-125709590D01*
X118799425Y-125998660D01*
X118832910Y-126059983D01*
X118833361Y-126062149D01*
X118864261Y-126217491D01*
X118864264Y-126217501D01*
X118924602Y-126363172D01*
X118924609Y-126363185D01*
X119012210Y-126494288D01*
X119012213Y-126494292D01*
X119123707Y-126605786D01*
X119123711Y-126605789D01*
X119254814Y-126693390D01*
X119254827Y-126693397D01*
X119400498Y-126753735D01*
X119400503Y-126753737D01*
X119555153Y-126784499D01*
X119555156Y-126784500D01*
X119555158Y-126784500D01*
X119712844Y-126784500D01*
X119712845Y-126784499D01*
X119867497Y-126753737D01*
X120013179Y-126693394D01*
X120144289Y-126605789D01*
X120255789Y-126494289D01*
X120343394Y-126363179D01*
X120403737Y-126217497D01*
X120434500Y-126062842D01*
X120434500Y-125905158D01*
X120434500Y-125905155D01*
X120434499Y-125905153D01*
X120428910Y-125877054D01*
X120403737Y-125750503D01*
X120403735Y-125750498D01*
X120343397Y-125604827D01*
X120343390Y-125604814D01*
X120255789Y-125473711D01*
X120255786Y-125473707D01*
X120144292Y-125362213D01*
X120144288Y-125362210D01*
X120013185Y-125274609D01*
X120013172Y-125274602D01*
X119867501Y-125214264D01*
X119867491Y-125214261D01*
X119712151Y-125183362D01*
X119695394Y-125174596D01*
X119676916Y-125170577D01*
X119651877Y-125151832D01*
X119650241Y-125150977D01*
X119648662Y-125149426D01*
X119508819Y-125009583D01*
X119475334Y-124948260D01*
X119472500Y-124921902D01*
X119472500Y-120975765D01*
X119492185Y-120908726D01*
X119493398Y-120906874D01*
X119581390Y-120775185D01*
X119581390Y-120775184D01*
X119581394Y-120775179D01*
X119641737Y-120629497D01*
X119672500Y-120474842D01*
X119672500Y-120317158D01*
X119672500Y-120317155D01*
X119672499Y-120317153D01*
X119641737Y-120162503D01*
X119614639Y-120097081D01*
X119581397Y-120016827D01*
X119581390Y-120016814D01*
X119493789Y-119885711D01*
X119493786Y-119885707D01*
X119382292Y-119774213D01*
X119382288Y-119774210D01*
X119251185Y-119686609D01*
X119251172Y-119686602D01*
X119105501Y-119626264D01*
X119105489Y-119626261D01*
X118950845Y-119595500D01*
X118950842Y-119595500D01*
X118793158Y-119595500D01*
X118793155Y-119595500D01*
X118638510Y-119626261D01*
X118638498Y-119626264D01*
X118492827Y-119686602D01*
X118492814Y-119686609D01*
X118361711Y-119774210D01*
X118361707Y-119774213D01*
X118250213Y-119885707D01*
X118250210Y-119885711D01*
X118162609Y-120016814D01*
X118162602Y-120016827D01*
X118102264Y-120162498D01*
X118102261Y-120162510D01*
X118071500Y-120317153D01*
X86440037Y-120317153D01*
X86412287Y-120262690D01*
X86339503Y-120162510D01*
X86291971Y-120097086D01*
X86147213Y-119952328D01*
X85981613Y-119832015D01*
X85981612Y-119832014D01*
X85981610Y-119832013D01*
X85924653Y-119802991D01*
X85799223Y-119739081D01*
X85604534Y-119675822D01*
X85429995Y-119648178D01*
X85402352Y-119643800D01*
X85197648Y-119643800D01*
X85173329Y-119647651D01*
X84995465Y-119675822D01*
X84800776Y-119739081D01*
X84618386Y-119832015D01*
X84452786Y-119952328D01*
X84308028Y-120097086D01*
X84187715Y-120262686D01*
X84094781Y-120445076D01*
X84031522Y-120639765D01*
X83999500Y-120841948D01*
X82100500Y-120841948D01*
X82073989Y-120674564D01*
X82068477Y-120639765D01*
X82014891Y-120474846D01*
X82005220Y-120445081D01*
X82005218Y-120445078D01*
X82005218Y-120445076D01*
X81965620Y-120367361D01*
X81912287Y-120262690D01*
X81839503Y-120162510D01*
X81791971Y-120097086D01*
X81647213Y-119952328D01*
X81481613Y-119832015D01*
X81481612Y-119832014D01*
X81481610Y-119832013D01*
X81424653Y-119802991D01*
X81299223Y-119739081D01*
X81104534Y-119675822D01*
X80929995Y-119648178D01*
X80902352Y-119643800D01*
X80697648Y-119643800D01*
X80673329Y-119647651D01*
X80495465Y-119675822D01*
X80300776Y-119739081D01*
X80118386Y-119832015D01*
X79952786Y-119952328D01*
X79808028Y-120097086D01*
X79687715Y-120262686D01*
X79594781Y-120445076D01*
X79531522Y-120639765D01*
X79499500Y-120841948D01*
X78613574Y-120841948D01*
X78569431Y-115853793D01*
X103150000Y-115853793D01*
X103150000Y-116034806D01*
X103178317Y-116213593D01*
X103234251Y-116385744D01*
X103234252Y-116385747D01*
X103316431Y-116547030D01*
X103327913Y-116562832D01*
X103327913Y-116562833D01*
X103900000Y-115990746D01*
X103900000Y-115996961D01*
X103927259Y-116098694D01*
X103979920Y-116189906D01*
X104054394Y-116264380D01*
X104145606Y-116317041D01*
X104247339Y-116344300D01*
X104253553Y-116344300D01*
X103681466Y-116916385D01*
X103681466Y-116916386D01*
X103697267Y-116927866D01*
X103697275Y-116927871D01*
X103858552Y-117010047D01*
X103858555Y-117010048D01*
X104030706Y-117065982D01*
X104209494Y-117094300D01*
X104390506Y-117094300D01*
X104569293Y-117065982D01*
X104741444Y-117010048D01*
X104741452Y-117010045D01*
X104902730Y-116927868D01*
X104918532Y-116916385D01*
X104918533Y-116916385D01*
X104346448Y-116344300D01*
X104352661Y-116344300D01*
X104454394Y-116317041D01*
X104545606Y-116264380D01*
X104620080Y-116189906D01*
X104672741Y-116098694D01*
X104700000Y-115996961D01*
X104700000Y-115990748D01*
X105272085Y-116562833D01*
X105272085Y-116562832D01*
X105283568Y-116547030D01*
X105365745Y-116385752D01*
X105365748Y-116385744D01*
X105421682Y-116213593D01*
X105450000Y-116034806D01*
X105450000Y-115853793D01*
X105421682Y-115675006D01*
X105365748Y-115502855D01*
X105365747Y-115502852D01*
X105283571Y-115341575D01*
X105283566Y-115341567D01*
X105272085Y-115325766D01*
X104700000Y-115897851D01*
X104700000Y-115891639D01*
X104672741Y-115789906D01*
X104620080Y-115698694D01*
X104545606Y-115624220D01*
X104454394Y-115571559D01*
X104352661Y-115544300D01*
X104346447Y-115544300D01*
X104644311Y-115246435D01*
X109649500Y-115246435D01*
X109649500Y-116642170D01*
X109649501Y-116642176D01*
X109655908Y-116701783D01*
X109706202Y-116836628D01*
X109706206Y-116836635D01*
X109792452Y-116951844D01*
X109792455Y-116951847D01*
X109907664Y-117038093D01*
X109907671Y-117038097D01*
X110042517Y-117088391D01*
X110042516Y-117088391D01*
X110049444Y-117089135D01*
X110102127Y-117094800D01*
X111497872Y-117094799D01*
X111557483Y-117088391D01*
X111692331Y-117038096D01*
X111807546Y-116951846D01*
X111893796Y-116836631D01*
X111944091Y-116701783D01*
X111950500Y-116642173D01*
X111950499Y-115246428D01*
X111944091Y-115186817D01*
X111921375Y-115125913D01*
X111893797Y-115051971D01*
X111893793Y-115051964D01*
X111807547Y-114936755D01*
X111807544Y-114936752D01*
X111692335Y-114850506D01*
X111692328Y-114850502D01*
X111557482Y-114800208D01*
X111557483Y-114800208D01*
X111497883Y-114793801D01*
X111497881Y-114793800D01*
X111497873Y-114793800D01*
X111497864Y-114793800D01*
X110102129Y-114793800D01*
X110102123Y-114793801D01*
X110042516Y-114800208D01*
X109907671Y-114850502D01*
X109907664Y-114850506D01*
X109792455Y-114936752D01*
X109792452Y-114936755D01*
X109706206Y-115051964D01*
X109706202Y-115051971D01*
X109655908Y-115186817D01*
X109649501Y-115246416D01*
X109649501Y-115246423D01*
X109649500Y-115246435D01*
X104644311Y-115246435D01*
X104918533Y-114972213D01*
X104902730Y-114960731D01*
X104741447Y-114878552D01*
X104741444Y-114878551D01*
X104569293Y-114822617D01*
X104390506Y-114794300D01*
X104209494Y-114794300D01*
X104030706Y-114822617D01*
X103858555Y-114878551D01*
X103858547Y-114878554D01*
X103697269Y-114960732D01*
X103681466Y-114972212D01*
X103681466Y-114972213D01*
X104253554Y-115544300D01*
X104247339Y-115544300D01*
X104145606Y-115571559D01*
X104054394Y-115624220D01*
X103979920Y-115698694D01*
X103927259Y-115789906D01*
X103900000Y-115891639D01*
X103900000Y-115897853D01*
X103327912Y-115325766D01*
X103316432Y-115341569D01*
X103234254Y-115502847D01*
X103234251Y-115502855D01*
X103178317Y-115675006D01*
X103150000Y-115853793D01*
X78569431Y-115853793D01*
X78556052Y-114341948D01*
X79499500Y-114341948D01*
X79499500Y-114546651D01*
X79531522Y-114748834D01*
X79594781Y-114943523D01*
X79687715Y-115125913D01*
X79808028Y-115291513D01*
X79952786Y-115436271D01*
X80101478Y-115544300D01*
X80118390Y-115556587D01*
X80234607Y-115615803D01*
X80300776Y-115649518D01*
X80300778Y-115649518D01*
X80300781Y-115649520D01*
X80379219Y-115675006D01*
X80495465Y-115712777D01*
X80581780Y-115726448D01*
X80697648Y-115744800D01*
X80697649Y-115744800D01*
X80902351Y-115744800D01*
X80902352Y-115744800D01*
X81104534Y-115712777D01*
X81299219Y-115649520D01*
X81481610Y-115556587D01*
X81574590Y-115489032D01*
X81647213Y-115436271D01*
X81647215Y-115436268D01*
X81647219Y-115436266D01*
X81791966Y-115291519D01*
X81791968Y-115291515D01*
X81791971Y-115291513D01*
X81868036Y-115186817D01*
X81912287Y-115125910D01*
X82005220Y-114943519D01*
X82068477Y-114748834D01*
X82100500Y-114546652D01*
X82100500Y-114341948D01*
X83999500Y-114341948D01*
X83999500Y-114546651D01*
X84031522Y-114748834D01*
X84094781Y-114943523D01*
X84187715Y-115125913D01*
X84308028Y-115291513D01*
X84452786Y-115436271D01*
X84601478Y-115544300D01*
X84618390Y-115556587D01*
X84734607Y-115615803D01*
X84800776Y-115649518D01*
X84800778Y-115649518D01*
X84800781Y-115649520D01*
X84879219Y-115675006D01*
X84995465Y-115712777D01*
X85081780Y-115726448D01*
X85197648Y-115744800D01*
X85197649Y-115744800D01*
X85402351Y-115744800D01*
X85402352Y-115744800D01*
X85604534Y-115712777D01*
X85799219Y-115649520D01*
X85981610Y-115556587D01*
X86074590Y-115489032D01*
X86147213Y-115436271D01*
X86147215Y-115436268D01*
X86147219Y-115436266D01*
X86291966Y-115291519D01*
X86291968Y-115291515D01*
X86291971Y-115291513D01*
X86368036Y-115186817D01*
X86412287Y-115125910D01*
X86496450Y-114960731D01*
X86505217Y-114943526D01*
X86505217Y-114943522D01*
X86505220Y-114943519D01*
X86568477Y-114748834D01*
X86600500Y-114546652D01*
X86600500Y-114341948D01*
X86568477Y-114139766D01*
X86505220Y-113945081D01*
X86505218Y-113945078D01*
X86505218Y-113945076D01*
X86471503Y-113878907D01*
X86412287Y-113762690D01*
X86404556Y-113752049D01*
X86291971Y-113597086D01*
X86147213Y-113452328D01*
X85981613Y-113332015D01*
X85981612Y-113332014D01*
X85981610Y-113332013D01*
X85924653Y-113302991D01*
X85799223Y-113239081D01*
X85604534Y-113175822D01*
X85429995Y-113148178D01*
X85402352Y-113143800D01*
X85197648Y-113143800D01*
X85173329Y-113147651D01*
X84995465Y-113175822D01*
X84800776Y-113239081D01*
X84618386Y-113332015D01*
X84452786Y-113452328D01*
X84308028Y-113597086D01*
X84187715Y-113762686D01*
X84094781Y-113945076D01*
X84031522Y-114139765D01*
X83999500Y-114341948D01*
X82100500Y-114341948D01*
X82068477Y-114139766D01*
X82005220Y-113945081D01*
X82005218Y-113945078D01*
X82005218Y-113945076D01*
X81971503Y-113878907D01*
X81912287Y-113762690D01*
X81904556Y-113752049D01*
X81791971Y-113597086D01*
X81647213Y-113452328D01*
X81481613Y-113332015D01*
X81481612Y-113332014D01*
X81481610Y-113332013D01*
X81424653Y-113302991D01*
X81299223Y-113239081D01*
X81104534Y-113175822D01*
X80929995Y-113148178D01*
X80902352Y-113143800D01*
X80697648Y-113143800D01*
X80673329Y-113147651D01*
X80495465Y-113175822D01*
X80300776Y-113239081D01*
X80118386Y-113332015D01*
X79952786Y-113452328D01*
X79808028Y-113597086D01*
X79687715Y-113762686D01*
X79594781Y-113945076D01*
X79531522Y-114139765D01*
X79499500Y-114341948D01*
X78556052Y-114341948D01*
X78525966Y-110942191D01*
X93456537Y-110942191D01*
X93456537Y-111099884D01*
X93487298Y-111254527D01*
X93487301Y-111254539D01*
X93547639Y-111400210D01*
X93547646Y-111400223D01*
X93635247Y-111531326D01*
X93635250Y-111531330D01*
X93746744Y-111642824D01*
X93746748Y-111642827D01*
X93877851Y-111730428D01*
X93877864Y-111730435D01*
X94023535Y-111790773D01*
X94023540Y-111790775D01*
X94178190Y-111821537D01*
X94178193Y-111821538D01*
X94178195Y-111821538D01*
X94335881Y-111821538D01*
X94335882Y-111821537D01*
X94490534Y-111790775D01*
X94636216Y-111730432D01*
X94767326Y-111642827D01*
X94878826Y-111531327D01*
X94966431Y-111400217D01*
X94976228Y-111376562D01*
X95003106Y-111336335D01*
X96973988Y-109365453D01*
X115324500Y-109365453D01*
X115324500Y-109523146D01*
X115355261Y-109677789D01*
X115355264Y-109677801D01*
X115415602Y-109823472D01*
X115415609Y-109823485D01*
X115503210Y-109954588D01*
X115503213Y-109954592D01*
X115614707Y-110066086D01*
X115614711Y-110066089D01*
X115745814Y-110153690D01*
X115745827Y-110153697D01*
X115891498Y-110214035D01*
X115891503Y-110214037D01*
X116046153Y-110244799D01*
X116046156Y-110244800D01*
X116046158Y-110244800D01*
X116203844Y-110244800D01*
X116203845Y-110244799D01*
X116358497Y-110214037D01*
X116504179Y-110153694D01*
X116635289Y-110066089D01*
X116746789Y-109954589D01*
X116834394Y-109823479D01*
X116894737Y-109677797D01*
X116925500Y-109523142D01*
X116925500Y-109365458D01*
X116925500Y-109365455D01*
X116925499Y-109365453D01*
X116894738Y-109210810D01*
X116894737Y-109210803D01*
X116881062Y-109177789D01*
X116834397Y-109065127D01*
X116834390Y-109065114D01*
X116746398Y-108933425D01*
X116725520Y-108866747D01*
X116725500Y-108864534D01*
X116725500Y-106867800D01*
X116745185Y-106800761D01*
X116797989Y-106755006D01*
X116849500Y-106743800D01*
X116878844Y-106743800D01*
X116878845Y-106743799D01*
X117033497Y-106713037D01*
X117179179Y-106652694D01*
X117310289Y-106565089D01*
X117421789Y-106453589D01*
X117509394Y-106322479D01*
X117569737Y-106176797D01*
X117600500Y-106022142D01*
X117600500Y-105864458D01*
X117600500Y-105864455D01*
X117600499Y-105864453D01*
X117592347Y-105823472D01*
X117569737Y-105709803D01*
X117569735Y-105709798D01*
X117509397Y-105564127D01*
X117509390Y-105564114D01*
X117421790Y-105433012D01*
X117421786Y-105433007D01*
X117354232Y-105365453D01*
X117999500Y-105365453D01*
X117999500Y-105523146D01*
X118030261Y-105677789D01*
X118030264Y-105677801D01*
X118090602Y-105823472D01*
X118090609Y-105823485D01*
X118178602Y-105955174D01*
X118199480Y-106021851D01*
X118199500Y-106024065D01*
X118199500Y-108364534D01*
X118179815Y-108431573D01*
X118178602Y-108433425D01*
X118090609Y-108565114D01*
X118090602Y-108565127D01*
X118030264Y-108710798D01*
X118030261Y-108710810D01*
X117999500Y-108865453D01*
X117999500Y-109023146D01*
X118030261Y-109177789D01*
X118030264Y-109177801D01*
X118090602Y-109323472D01*
X118090609Y-109323485D01*
X118178210Y-109454588D01*
X118178213Y-109454592D01*
X118289707Y-109566086D01*
X118289711Y-109566089D01*
X118420814Y-109653690D01*
X118420827Y-109653697D01*
X118566498Y-109714035D01*
X118566503Y-109714037D01*
X118721153Y-109744799D01*
X118721156Y-109744800D01*
X118721158Y-109744800D01*
X118878844Y-109744800D01*
X118878845Y-109744799D01*
X119033497Y-109714037D01*
X119179179Y-109653694D01*
X119310289Y-109566089D01*
X119421789Y-109454589D01*
X119509394Y-109323479D01*
X119569737Y-109177797D01*
X119600500Y-109023142D01*
X119600500Y-108865458D01*
X119600500Y-108865455D01*
X119600499Y-108865453D01*
X119569738Y-108710810D01*
X119569737Y-108710803D01*
X119569735Y-108710798D01*
X119509397Y-108565127D01*
X119509390Y-108565114D01*
X119421398Y-108433425D01*
X119400520Y-108366747D01*
X119400500Y-108364534D01*
X119400500Y-106024065D01*
X119420185Y-105957026D01*
X119421398Y-105955174D01*
X119509390Y-105823485D01*
X119509390Y-105823484D01*
X119509394Y-105823479D01*
X119569737Y-105677797D01*
X119600500Y-105523142D01*
X119600500Y-105365458D01*
X119600500Y-105365455D01*
X119600499Y-105365453D01*
X119591758Y-105321510D01*
X119569737Y-105210803D01*
X119568110Y-105206874D01*
X119509397Y-105065127D01*
X119509390Y-105065114D01*
X119421789Y-104934011D01*
X119421786Y-104934007D01*
X119310292Y-104822513D01*
X119310288Y-104822510D01*
X119179185Y-104734909D01*
X119179172Y-104734902D01*
X119033501Y-104674564D01*
X119033489Y-104674561D01*
X118878845Y-104643800D01*
X118878842Y-104643800D01*
X118721158Y-104643800D01*
X118721155Y-104643800D01*
X118566510Y-104674561D01*
X118566498Y-104674564D01*
X118420827Y-104734902D01*
X118420814Y-104734909D01*
X118289711Y-104822510D01*
X118289707Y-104822513D01*
X118178213Y-104934007D01*
X118178210Y-104934011D01*
X118090609Y-105065114D01*
X118090602Y-105065127D01*
X118030264Y-105210798D01*
X118030261Y-105210810D01*
X117999500Y-105365453D01*
X117354232Y-105365453D01*
X117310292Y-105321513D01*
X117310288Y-105321510D01*
X117179185Y-105233909D01*
X117179172Y-105233902D01*
X117033501Y-105173564D01*
X117033489Y-105173561D01*
X116878845Y-105142800D01*
X116878842Y-105142800D01*
X116721158Y-105142800D01*
X116721155Y-105142800D01*
X116566510Y-105173561D01*
X116566498Y-105173564D01*
X116420827Y-105233902D01*
X116420814Y-105233909D01*
X116289125Y-105321902D01*
X116228873Y-105340767D01*
X116229001Y-105341739D01*
X116223428Y-105342472D01*
X116222447Y-105342780D01*
X116220995Y-105342793D01*
X116220941Y-105342800D01*
X116185510Y-105352293D01*
X116185511Y-105352294D01*
X116068214Y-105383723D01*
X116068209Y-105383726D01*
X115931290Y-105462775D01*
X115931282Y-105462781D01*
X115758678Y-105635385D01*
X115758669Y-105635394D01*
X115756286Y-105637778D01*
X115756284Y-105637780D01*
X115644480Y-105749584D01*
X115629481Y-105775564D01*
X115623038Y-105786722D01*
X115623038Y-105786723D01*
X115578159Y-105864455D01*
X115565423Y-105886515D01*
X115524499Y-106039243D01*
X115524499Y-106039245D01*
X115524499Y-106207346D01*
X115524500Y-106207359D01*
X115524500Y-108864534D01*
X115504815Y-108931573D01*
X115503602Y-108933425D01*
X115415609Y-109065114D01*
X115415602Y-109065127D01*
X115355264Y-109210798D01*
X115355261Y-109210810D01*
X115324500Y-109365453D01*
X96973988Y-109365453D01*
X97963413Y-108376028D01*
X97982193Y-108360615D01*
X98046289Y-108317789D01*
X98157789Y-108206289D01*
X98245394Y-108075179D01*
X98305737Y-107929497D01*
X98336500Y-107774842D01*
X98336500Y-107617158D01*
X98336500Y-107617155D01*
X98336499Y-107617153D01*
X98325979Y-107564267D01*
X98305737Y-107462503D01*
X98246214Y-107318800D01*
X98245397Y-107316827D01*
X98245390Y-107316814D01*
X98157789Y-107185711D01*
X98157786Y-107185707D01*
X98046292Y-107074213D01*
X98046288Y-107074210D01*
X97915185Y-106986609D01*
X97915172Y-106986602D01*
X97769501Y-106926264D01*
X97769489Y-106926261D01*
X97614845Y-106895500D01*
X97614842Y-106895500D01*
X97457158Y-106895500D01*
X97457155Y-106895500D01*
X97302510Y-106926261D01*
X97302498Y-106926264D01*
X97156827Y-106986602D01*
X97156814Y-106986609D01*
X97025711Y-107074210D01*
X97025707Y-107074213D01*
X96914213Y-107185707D01*
X96914210Y-107185711D01*
X96826609Y-107316814D01*
X96826606Y-107316820D01*
X96784227Y-107419131D01*
X96757347Y-107459358D01*
X93941740Y-110274965D01*
X93901517Y-110301843D01*
X93877856Y-110311644D01*
X93877855Y-110311645D01*
X93746752Y-110399245D01*
X93746744Y-110399251D01*
X93635250Y-110510745D01*
X93635247Y-110510749D01*
X93547646Y-110641852D01*
X93547639Y-110641865D01*
X93487301Y-110787536D01*
X93487298Y-110787548D01*
X93456537Y-110942191D01*
X78525966Y-110942191D01*
X78502270Y-108264515D01*
X78521359Y-108197308D01*
X78573756Y-108151088D01*
X78642824Y-108140533D01*
X78686435Y-108155330D01*
X78686553Y-108155111D01*
X78687870Y-108155817D01*
X78687906Y-108155829D01*
X78688091Y-108155935D01*
X78713203Y-108169389D01*
X78755166Y-108190371D01*
X78776739Y-108200529D01*
X78777558Y-108200891D01*
X78799883Y-108210136D01*
X78843924Y-108227151D01*
X78869696Y-108236313D01*
X78870756Y-108236658D01*
X78896804Y-108244362D01*
X78941788Y-108256357D01*
X78964336Y-108261818D01*
X78965255Y-108262019D01*
X78988061Y-108266443D01*
X79035104Y-108274451D01*
X79066486Y-108278783D01*
X79067792Y-108278921D01*
X79099592Y-108281283D01*
X79146608Y-108283284D01*
X79157404Y-108283628D01*
X79157791Y-108283636D01*
X79168495Y-108283750D01*
X79268500Y-108283750D01*
X79268500Y-108268250D01*
X79288185Y-108201211D01*
X79340989Y-108155456D01*
X79392500Y-108144250D01*
X79644500Y-108144250D01*
X79711539Y-108163935D01*
X79757294Y-108216739D01*
X79768500Y-108268250D01*
X79768500Y-108283750D01*
X79868505Y-108283750D01*
X79879208Y-108283636D01*
X79879595Y-108283628D01*
X79890391Y-108283284D01*
X79937407Y-108281283D01*
X79969207Y-108278921D01*
X79970513Y-108278783D01*
X80001895Y-108274451D01*
X80048938Y-108266443D01*
X80071744Y-108262019D01*
X80072663Y-108261818D01*
X80095211Y-108256357D01*
X80140195Y-108244362D01*
X80166243Y-108236658D01*
X80167303Y-108236313D01*
X80193075Y-108227151D01*
X80237116Y-108210136D01*
X80259441Y-108200891D01*
X80260260Y-108200529D01*
X80281833Y-108190371D01*
X80323796Y-108169389D01*
X80348923Y-108155927D01*
X80349896Y-108155370D01*
X80374150Y-108140559D01*
X80414182Y-108114538D01*
X80438653Y-108097584D01*
X80439605Y-108096883D01*
X80463197Y-108078381D01*
X80499227Y-108048356D01*
X80516460Y-108033320D01*
X80517108Y-108032728D01*
X80533681Y-108016889D01*
X80566639Y-107983931D01*
X80582478Y-107967358D01*
X80583070Y-107966710D01*
X80598106Y-107949477D01*
X80628131Y-107913447D01*
X80646633Y-107889855D01*
X80647334Y-107888903D01*
X80664288Y-107864432D01*
X80690309Y-107824400D01*
X80705120Y-107800146D01*
X80705677Y-107799173D01*
X80719139Y-107774046D01*
X80740121Y-107732083D01*
X80750279Y-107710510D01*
X80750641Y-107709691D01*
X80759886Y-107687366D01*
X80776901Y-107643325D01*
X80786063Y-107617553D01*
X80786408Y-107616493D01*
X80794106Y-107590462D01*
X80801092Y-107564267D01*
X80780575Y-107511291D01*
X80780817Y-107487954D01*
X80798597Y-107318800D01*
X80780809Y-107149569D01*
X80793378Y-107080845D01*
X80800218Y-107069953D01*
X80794106Y-107047037D01*
X80786408Y-107021006D01*
X80786063Y-107019946D01*
X80776901Y-106994174D01*
X80759886Y-106950133D01*
X80750641Y-106927808D01*
X80750279Y-106926989D01*
X80740121Y-106905416D01*
X80719139Y-106863453D01*
X80705677Y-106838326D01*
X80705120Y-106837353D01*
X80690309Y-106813099D01*
X80664288Y-106773067D01*
X80647334Y-106748596D01*
X80646633Y-106747644D01*
X80628131Y-106724052D01*
X80598127Y-106688047D01*
X80586546Y-106674774D01*
X80557303Y-106611318D01*
X80567009Y-106542126D01*
X80612583Y-106489165D01*
X80679554Y-106469251D01*
X80679980Y-106469250D01*
X82580512Y-106469250D01*
X82584392Y-106469250D01*
X82584571Y-106469201D01*
X82591778Y-106469202D01*
X82670758Y-106451179D01*
X82672383Y-106450854D01*
X82705598Y-106453783D01*
X82738881Y-106455824D01*
X82740268Y-106456840D01*
X82741982Y-106456992D01*
X82768336Y-106477411D01*
X82795236Y-106497125D01*
X82797045Y-106499654D01*
X82797214Y-106499785D01*
X82797287Y-106499993D01*
X82799831Y-106503549D01*
X82900586Y-106654339D01*
X82900589Y-106654343D01*
X83032906Y-106786660D01*
X83032910Y-106786663D01*
X83188499Y-106890625D01*
X83188508Y-106890630D01*
X83361394Y-106962241D01*
X83361402Y-106962243D01*
X83544928Y-106998749D01*
X83544931Y-106998750D01*
X83588500Y-106998750D01*
X83588500Y-106373750D01*
X84088500Y-106373750D01*
X84088500Y-106998750D01*
X84132069Y-106998750D01*
X84132071Y-106998749D01*
X84315597Y-106962243D01*
X84315605Y-106962241D01*
X84488491Y-106890630D01*
X84488500Y-106890625D01*
X84644089Y-106786663D01*
X84644093Y-106786660D01*
X84776410Y-106654343D01*
X84776413Y-106654339D01*
X84880375Y-106498750D01*
X84880380Y-106498741D01*
X84951992Y-106325853D01*
X84951993Y-106325850D01*
X84957384Y-106298750D01*
X84348118Y-106298750D01*
X84398564Y-106248304D01*
X84441351Y-106174195D01*
X84463500Y-106091537D01*
X84463500Y-106005963D01*
X84441351Y-105923305D01*
X84398564Y-105849196D01*
X84348118Y-105798750D01*
X84957384Y-105798750D01*
X84957384Y-105798749D01*
X84951993Y-105771649D01*
X84951992Y-105771646D01*
X84880380Y-105598758D01*
X84880375Y-105598749D01*
X84776413Y-105443160D01*
X84776410Y-105443156D01*
X84644093Y-105310839D01*
X84644089Y-105310836D01*
X84488500Y-105206874D01*
X84488491Y-105206869D01*
X84315605Y-105135258D01*
X84315597Y-105135256D01*
X84132070Y-105098750D01*
X84068000Y-105098750D01*
X84000961Y-105079065D01*
X83955206Y-105026261D01*
X83944000Y-104974750D01*
X83944000Y-104822986D01*
X83944000Y-104822984D01*
X83904781Y-104676615D01*
X83829015Y-104545385D01*
X83721865Y-104438235D01*
X83656250Y-104400352D01*
X83590636Y-104362469D01*
X83517450Y-104342859D01*
X83444266Y-104323250D01*
X83293000Y-104323250D01*
X83225961Y-104303565D01*
X83180206Y-104250761D01*
X83169000Y-104199250D01*
X83169000Y-100865453D01*
X85499500Y-100865453D01*
X85499500Y-101023146D01*
X85530261Y-101177789D01*
X85530264Y-101177801D01*
X85590602Y-101323472D01*
X85590609Y-101323485D01*
X85678602Y-101455174D01*
X85699480Y-101521851D01*
X85699500Y-101524065D01*
X85699500Y-102357630D01*
X85699499Y-102357648D01*
X85699499Y-102523354D01*
X85699498Y-102523354D01*
X85699499Y-102523357D01*
X85740423Y-102676085D01*
X85760468Y-102710803D01*
X85799809Y-102778945D01*
X85819479Y-102813015D01*
X85931284Y-102924820D01*
X85965425Y-102958960D01*
X85998911Y-103020283D01*
X85999362Y-103022451D01*
X86030261Y-103177791D01*
X86030264Y-103177801D01*
X86090602Y-103323472D01*
X86090609Y-103323485D01*
X86178210Y-103454588D01*
X86178213Y-103454592D01*
X86289707Y-103566086D01*
X86289711Y-103566089D01*
X86420814Y-103653690D01*
X86420827Y-103653697D01*
X86566498Y-103714035D01*
X86566503Y-103714037D01*
X86721153Y-103744799D01*
X86721156Y-103744800D01*
X86721158Y-103744800D01*
X86878844Y-103744800D01*
X86878845Y-103744799D01*
X87033497Y-103714037D01*
X87179179Y-103653694D01*
X87310289Y-103566089D01*
X87421789Y-103454589D01*
X87509394Y-103323479D01*
X87569737Y-103177797D01*
X87600500Y-103023142D01*
X87600500Y-102865458D01*
X87600500Y-102865455D01*
X87600499Y-102865453D01*
X87569737Y-102710803D01*
X87569735Y-102710798D01*
X87509397Y-102565127D01*
X87509390Y-102565114D01*
X87421789Y-102434011D01*
X87421786Y-102434007D01*
X87310292Y-102322513D01*
X87310288Y-102322510D01*
X87179185Y-102234909D01*
X87179172Y-102234902D01*
X87033501Y-102174564D01*
X87033489Y-102174561D01*
X87000309Y-102167961D01*
X86938398Y-102135576D01*
X86903824Y-102074861D01*
X86900500Y-102046344D01*
X86900500Y-101524065D01*
X86920185Y-101457026D01*
X86921398Y-101455174D01*
X87009390Y-101323485D01*
X87009390Y-101323484D01*
X87009394Y-101323479D01*
X87069737Y-101177797D01*
X87100500Y-101023142D01*
X87100500Y-100865458D01*
X87100500Y-100865455D01*
X87100499Y-100865453D01*
X87069738Y-100710810D01*
X87069737Y-100710803D01*
X87069735Y-100710798D01*
X87009397Y-100565127D01*
X87009390Y-100565114D01*
X86921789Y-100434011D01*
X86921786Y-100434007D01*
X86810292Y-100322513D01*
X86810288Y-100322510D01*
X86679185Y-100234909D01*
X86679172Y-100234902D01*
X86533501Y-100174564D01*
X86533489Y-100174561D01*
X86378845Y-100143800D01*
X86378842Y-100143800D01*
X86221158Y-100143800D01*
X86221155Y-100143800D01*
X86066510Y-100174561D01*
X86066498Y-100174564D01*
X85920827Y-100234902D01*
X85920814Y-100234909D01*
X85789711Y-100322510D01*
X85789707Y-100322513D01*
X85678213Y-100434007D01*
X85678210Y-100434011D01*
X85590609Y-100565114D01*
X85590602Y-100565127D01*
X85530264Y-100710798D01*
X85530261Y-100710810D01*
X85499500Y-100865453D01*
X83169000Y-100865453D01*
X83169000Y-98598250D01*
X83188685Y-98531211D01*
X83241489Y-98485456D01*
X83293000Y-98474250D01*
X83444264Y-98474250D01*
X83444266Y-98474250D01*
X83590635Y-98435031D01*
X83721865Y-98359265D01*
X83829015Y-98252115D01*
X83904781Y-98120885D01*
X83944000Y-97974516D01*
X83944000Y-97822984D01*
X83944000Y-97822750D01*
X83963685Y-97755711D01*
X84016489Y-97709956D01*
X84068000Y-97698750D01*
X84132069Y-97698750D01*
X84132071Y-97698749D01*
X84315597Y-97662243D01*
X84315605Y-97662241D01*
X84488491Y-97590630D01*
X84488500Y-97590625D01*
X84644089Y-97486663D01*
X84644093Y-97486660D01*
X84776410Y-97354343D01*
X84776413Y-97354339D01*
X84880375Y-97198750D01*
X84880380Y-97198741D01*
X84951992Y-97025853D01*
X84951993Y-97025850D01*
X84957384Y-96998750D01*
X84348118Y-96998750D01*
X84398564Y-96948304D01*
X84441351Y-96874195D01*
X84463500Y-96791537D01*
X84463500Y-96705963D01*
X84441351Y-96623305D01*
X84398564Y-96549196D01*
X84348118Y-96498750D01*
X84957384Y-96498750D01*
X84957384Y-96498749D01*
X84951993Y-96471649D01*
X84951992Y-96471646D01*
X84880380Y-96298758D01*
X84880375Y-96298749D01*
X84776413Y-96143160D01*
X84776410Y-96143156D01*
X84644093Y-96010839D01*
X84644089Y-96010836D01*
X84488500Y-95906874D01*
X84488491Y-95906869D01*
X84315605Y-95835258D01*
X84315597Y-95835256D01*
X84132070Y-95798750D01*
X84088500Y-95798750D01*
X84088500Y-96423750D01*
X83588500Y-96423750D01*
X83588500Y-95798750D01*
X83544930Y-95798750D01*
X83361402Y-95835256D01*
X83361394Y-95835258D01*
X83188508Y-95906869D01*
X83188499Y-95906874D01*
X83032910Y-96010836D01*
X83032906Y-96010839D01*
X82900589Y-96143156D01*
X82900586Y-96143160D01*
X82855330Y-96210891D01*
X82801718Y-96255696D01*
X82752228Y-96266000D01*
X80731955Y-96266000D01*
X80664916Y-96246315D01*
X80619161Y-96193511D01*
X80609217Y-96124353D01*
X80634381Y-96065480D01*
X80646620Y-96049872D01*
X80647334Y-96048903D01*
X80664288Y-96024432D01*
X80690309Y-95984400D01*
X80705120Y-95960146D01*
X80705677Y-95959173D01*
X80719139Y-95934046D01*
X80740121Y-95892083D01*
X80750279Y-95870510D01*
X80750641Y-95869691D01*
X80759886Y-95847366D01*
X80776901Y-95803325D01*
X80786063Y-95777553D01*
X80786408Y-95776493D01*
X80794106Y-95750462D01*
X80801092Y-95724267D01*
X80780575Y-95671291D01*
X80780817Y-95647954D01*
X80798597Y-95478800D01*
X80780809Y-95309569D01*
X80793378Y-95240845D01*
X80800218Y-95229953D01*
X80794106Y-95207037D01*
X80786408Y-95181006D01*
X80786063Y-95179946D01*
X80776901Y-95154174D01*
X80759886Y-95110133D01*
X80750641Y-95087808D01*
X80750279Y-95086989D01*
X80740121Y-95065416D01*
X80719139Y-95023453D01*
X80705677Y-94998326D01*
X80705120Y-94997353D01*
X80690309Y-94973099D01*
X80664288Y-94933067D01*
X80647334Y-94908596D01*
X80646633Y-94907644D01*
X80628131Y-94884052D01*
X80598106Y-94848022D01*
X80583070Y-94830789D01*
X80582478Y-94830141D01*
X80566639Y-94813568D01*
X80533681Y-94780610D01*
X80517108Y-94764771D01*
X80516460Y-94764179D01*
X80499227Y-94749143D01*
X80463197Y-94719118D01*
X80439605Y-94700616D01*
X80438653Y-94699915D01*
X80414182Y-94682961D01*
X80374150Y-94656940D01*
X80349896Y-94642129D01*
X80348923Y-94641572D01*
X80323796Y-94628110D01*
X80281833Y-94607128D01*
X80260260Y-94596970D01*
X80259441Y-94596608D01*
X80237116Y-94587363D01*
X80193075Y-94570348D01*
X80167303Y-94561186D01*
X80166243Y-94560841D01*
X80140195Y-94553137D01*
X80095211Y-94541142D01*
X80072663Y-94535681D01*
X80071744Y-94535480D01*
X80048938Y-94531056D01*
X80001895Y-94523048D01*
X79977398Y-94519667D01*
X79970513Y-94518716D01*
X79969207Y-94518578D01*
X79937407Y-94516216D01*
X79890391Y-94514215D01*
X79879595Y-94513871D01*
X79879208Y-94513863D01*
X79868505Y-94513750D01*
X79768500Y-94513750D01*
X79768500Y-94529250D01*
X79748815Y-94596289D01*
X79696011Y-94642044D01*
X79644500Y-94653250D01*
X79392500Y-94653250D01*
X79325461Y-94633565D01*
X79279706Y-94580761D01*
X79268500Y-94529250D01*
X79268500Y-94513750D01*
X79168495Y-94513750D01*
X79157791Y-94513863D01*
X79157404Y-94513871D01*
X79146608Y-94514215D01*
X79099592Y-94516216D01*
X79067792Y-94518578D01*
X79066486Y-94518716D01*
X79035104Y-94523048D01*
X78988061Y-94531056D01*
X78965255Y-94535480D01*
X78964336Y-94535681D01*
X78941788Y-94541142D01*
X78896804Y-94553137D01*
X78870756Y-94560841D01*
X78869696Y-94561186D01*
X78843924Y-94570348D01*
X78799883Y-94587363D01*
X78777558Y-94596608D01*
X78776739Y-94596970D01*
X78755166Y-94607128D01*
X78713203Y-94628110D01*
X78688079Y-94641571D01*
X78686104Y-94642702D01*
X78618144Y-94658924D01*
X78552202Y-94635829D01*
X78509213Y-94580749D01*
X78500500Y-94535087D01*
X78500500Y-94401698D01*
X109663500Y-94401698D01*
X109663500Y-94574301D01*
X109690499Y-94744765D01*
X109743831Y-94908907D01*
X109776539Y-94973099D01*
X109821105Y-95060564D01*
X109822191Y-95062694D01*
X109923630Y-95202316D01*
X110045683Y-95324369D01*
X110176336Y-95419292D01*
X110185309Y-95425811D01*
X110337284Y-95503247D01*
X110339092Y-95504168D01*
X110421163Y-95530834D01*
X110503236Y-95557501D01*
X110582187Y-95570005D01*
X110673699Y-95584500D01*
X110673704Y-95584500D01*
X110846301Y-95584500D01*
X110928939Y-95571410D01*
X111016764Y-95557501D01*
X111180910Y-95504167D01*
X111334691Y-95425811D01*
X111434488Y-95353305D01*
X111474316Y-95324369D01*
X111474318Y-95324366D01*
X111474322Y-95324364D01*
X111596364Y-95202322D01*
X111596366Y-95202318D01*
X111596369Y-95202316D01*
X111640853Y-95141086D01*
X111697811Y-95062691D01*
X111776167Y-94908910D01*
X111829501Y-94744764D01*
X111845666Y-94642702D01*
X111856500Y-94574301D01*
X111856500Y-94401706D01*
X111856498Y-94401690D01*
X111855876Y-94397761D01*
X125240500Y-94397761D01*
X125240500Y-94570838D01*
X125267573Y-94741768D01*
X125321051Y-94906359D01*
X125367415Y-94997353D01*
X125399623Y-95060564D01*
X125501348Y-95200576D01*
X125623724Y-95322952D01*
X125763736Y-95424677D01*
X125869958Y-95478800D01*
X125917940Y-95503248D01*
X125974229Y-95521537D01*
X126082533Y-95556727D01*
X126161699Y-95569265D01*
X126253462Y-95583800D01*
X126253467Y-95583800D01*
X126426538Y-95583800D01*
X126509402Y-95570674D01*
X126597467Y-95556727D01*
X126762062Y-95503247D01*
X126916264Y-95424677D01*
X127056276Y-95322952D01*
X127178652Y-95200576D01*
X127280377Y-95060564D01*
X127358947Y-94906362D01*
X127412427Y-94741767D01*
X127428208Y-94642129D01*
X127439500Y-94570838D01*
X127439500Y-94397761D01*
X127413124Y-94231236D01*
X127412427Y-94226833D01*
X127358947Y-94062238D01*
X127280377Y-93908036D01*
X127178652Y-93768024D01*
X127056276Y-93645648D01*
X126916264Y-93543923D01*
X126762059Y-93465351D01*
X126597468Y-93411873D01*
X126426538Y-93384800D01*
X126426533Y-93384800D01*
X126253467Y-93384800D01*
X126253462Y-93384800D01*
X126082531Y-93411873D01*
X125917940Y-93465351D01*
X125763735Y-93543923D01*
X125683853Y-93601961D01*
X125623724Y-93645648D01*
X125623722Y-93645650D01*
X125623721Y-93645650D01*
X125501350Y-93768021D01*
X125501350Y-93768022D01*
X125501348Y-93768024D01*
X125457661Y-93828153D01*
X125399623Y-93908035D01*
X125321051Y-94062240D01*
X125267573Y-94226831D01*
X125240500Y-94397761D01*
X111855876Y-94397761D01*
X111849982Y-94360552D01*
X111829501Y-94231236D01*
X111776167Y-94067090D01*
X111697811Y-93913309D01*
X111691292Y-93904336D01*
X111596369Y-93773683D01*
X111474316Y-93651630D01*
X111334694Y-93550191D01*
X111334693Y-93550190D01*
X111334691Y-93550189D01*
X111257800Y-93511011D01*
X111180907Y-93471831D01*
X111016765Y-93418499D01*
X110846301Y-93391500D01*
X110846296Y-93391500D01*
X110673704Y-93391500D01*
X110673699Y-93391500D01*
X110503234Y-93418499D01*
X110339092Y-93471831D01*
X110185305Y-93550191D01*
X110045683Y-93651630D01*
X109923630Y-93773683D01*
X109822191Y-93913305D01*
X109743831Y-94067092D01*
X109690499Y-94231234D01*
X109663500Y-94401698D01*
X78500500Y-94401698D01*
X78500500Y-91861698D01*
X107123500Y-91861698D01*
X107123500Y-92034301D01*
X107150499Y-92204765D01*
X107203831Y-92368907D01*
X107203833Y-92368910D01*
X107281105Y-92520564D01*
X107282191Y-92522694D01*
X107383630Y-92662316D01*
X107505683Y-92784369D01*
X107636336Y-92879292D01*
X107645309Y-92885811D01*
X107797284Y-92963247D01*
X107799092Y-92964168D01*
X107881163Y-92990834D01*
X107963236Y-93017501D01*
X108042187Y-93030005D01*
X108133699Y-93044500D01*
X108133704Y-93044500D01*
X108306301Y-93044500D01*
X108388939Y-93031410D01*
X108476764Y-93017501D01*
X108640910Y-92964167D01*
X108794691Y-92885811D01*
X108932573Y-92785635D01*
X108934316Y-92784369D01*
X108934318Y-92784366D01*
X108934322Y-92784364D01*
X109056364Y-92662322D01*
X109056366Y-92662318D01*
X109056369Y-92662316D01*
X109108057Y-92591172D01*
X109157811Y-92522691D01*
X109236167Y-92368910D01*
X109289501Y-92204764D01*
X109303410Y-92116939D01*
X109316500Y-92034301D01*
X109316500Y-91861698D01*
X112203500Y-91861698D01*
X112203500Y-92034301D01*
X112230499Y-92204765D01*
X112283831Y-92368907D01*
X112283833Y-92368910D01*
X112361105Y-92520564D01*
X112362191Y-92522694D01*
X112463630Y-92662316D01*
X112585683Y-92784369D01*
X112716336Y-92879292D01*
X112725309Y-92885811D01*
X112877284Y-92963247D01*
X112879092Y-92964168D01*
X112961163Y-92990834D01*
X113043236Y-93017501D01*
X113122187Y-93030005D01*
X113213699Y-93044500D01*
X113213704Y-93044500D01*
X113386301Y-93044500D01*
X113468939Y-93031410D01*
X113556764Y-93017501D01*
X113720910Y-92964167D01*
X113874691Y-92885811D01*
X114012573Y-92785635D01*
X114014316Y-92784369D01*
X114014318Y-92784366D01*
X114014322Y-92784364D01*
X114136364Y-92662322D01*
X114136366Y-92662318D01*
X114136369Y-92662316D01*
X114188057Y-92591172D01*
X114237811Y-92522691D01*
X114316167Y-92368910D01*
X114369501Y-92204764D01*
X114383410Y-92116939D01*
X114396500Y-92034301D01*
X114396500Y-91861698D01*
X114380792Y-91762532D01*
X114369501Y-91691236D01*
X114316167Y-91527090D01*
X114237811Y-91373309D01*
X114182686Y-91297435D01*
X122700500Y-91297435D01*
X122700500Y-92591170D01*
X122700501Y-92591176D01*
X122706908Y-92650783D01*
X122757202Y-92785628D01*
X122757206Y-92785635D01*
X122843452Y-92900844D01*
X122843455Y-92900847D01*
X122958664Y-92987093D01*
X122958671Y-92987097D01*
X123093517Y-93037391D01*
X123093516Y-93037391D01*
X123100444Y-93038135D01*
X123153127Y-93043800D01*
X124446872Y-93043799D01*
X124506483Y-93037391D01*
X124641331Y-92987096D01*
X124756546Y-92900846D01*
X124842796Y-92785631D01*
X124893091Y-92650783D01*
X124899500Y-92591173D01*
X124899499Y-91857761D01*
X127780500Y-91857761D01*
X127780500Y-92030838D01*
X127807573Y-92201768D01*
X127861051Y-92366359D01*
X127862351Y-92368910D01*
X127939623Y-92520564D01*
X128041348Y-92660576D01*
X128163724Y-92782952D01*
X128303736Y-92884677D01*
X128457938Y-92963247D01*
X128457940Y-92963248D01*
X128531329Y-92987093D01*
X128622533Y-93016727D01*
X128701699Y-93029265D01*
X128793462Y-93043800D01*
X128793467Y-93043800D01*
X128966538Y-93043800D01*
X129049402Y-93030674D01*
X129137467Y-93016727D01*
X129302062Y-92963247D01*
X129456264Y-92884677D01*
X129596276Y-92782952D01*
X129718652Y-92660576D01*
X129820377Y-92520564D01*
X129898947Y-92366362D01*
X129952427Y-92201767D01*
X129978952Y-92034296D01*
X129979500Y-92030838D01*
X129979500Y-91857761D01*
X129953124Y-91691236D01*
X129952427Y-91686833D01*
X129898947Y-91522238D01*
X129820377Y-91368036D01*
X129718652Y-91228024D01*
X129596276Y-91105648D01*
X129456264Y-91003923D01*
X129424527Y-90987752D01*
X129302059Y-90925351D01*
X129137468Y-90871873D01*
X128966538Y-90844800D01*
X128966533Y-90844800D01*
X128793467Y-90844800D01*
X128793462Y-90844800D01*
X128622531Y-90871873D01*
X128457940Y-90925351D01*
X128303735Y-91003923D01*
X128223853Y-91061961D01*
X128163724Y-91105648D01*
X128163722Y-91105650D01*
X128163721Y-91105650D01*
X128041350Y-91228021D01*
X128041350Y-91228022D01*
X128041348Y-91228024D01*
X128034234Y-91237816D01*
X127939623Y-91368035D01*
X127861051Y-91522240D01*
X127807573Y-91686831D01*
X127780500Y-91857761D01*
X124899499Y-91857761D01*
X124899499Y-91297428D01*
X124893091Y-91237817D01*
X124891547Y-91233678D01*
X124842797Y-91102971D01*
X124842793Y-91102964D01*
X124756547Y-90987755D01*
X124756544Y-90987752D01*
X124641335Y-90901506D01*
X124641328Y-90901502D01*
X124506482Y-90851208D01*
X124506483Y-90851208D01*
X124446883Y-90844801D01*
X124446881Y-90844800D01*
X124446873Y-90844800D01*
X124446864Y-90844800D01*
X123153129Y-90844800D01*
X123153123Y-90844801D01*
X123093516Y-90851208D01*
X122958671Y-90901502D01*
X122958664Y-90901506D01*
X122843455Y-90987752D01*
X122843452Y-90987755D01*
X122757206Y-91102964D01*
X122757202Y-91102971D01*
X122706908Y-91237817D01*
X122700501Y-91297416D01*
X122700501Y-91297423D01*
X122700500Y-91297435D01*
X114182686Y-91297435D01*
X114136364Y-91233678D01*
X114014322Y-91111636D01*
X114014316Y-91111630D01*
X113874694Y-91010191D01*
X113874693Y-91010190D01*
X113874691Y-91010189D01*
X113797800Y-90971011D01*
X113720907Y-90931831D01*
X113556765Y-90878499D01*
X113386301Y-90851500D01*
X113386296Y-90851500D01*
X113213704Y-90851500D01*
X113213699Y-90851500D01*
X113043234Y-90878499D01*
X112879092Y-90931831D01*
X112725305Y-91010191D01*
X112585683Y-91111630D01*
X112463630Y-91233683D01*
X112362191Y-91373305D01*
X112283831Y-91527092D01*
X112230499Y-91691234D01*
X112203500Y-91861698D01*
X109316500Y-91861698D01*
X109300792Y-91762532D01*
X109289501Y-91691236D01*
X109236167Y-91527090D01*
X109157811Y-91373309D01*
X109102686Y-91297435D01*
X109056369Y-91233683D01*
X108934316Y-91111630D01*
X108794694Y-91010191D01*
X108794693Y-91010190D01*
X108794691Y-91010189D01*
X108717800Y-90971011D01*
X108640907Y-90931831D01*
X108476765Y-90878499D01*
X108306301Y-90851500D01*
X108306296Y-90851500D01*
X108133704Y-90851500D01*
X108133699Y-90851500D01*
X107963234Y-90878499D01*
X107799092Y-90931831D01*
X107645305Y-91010191D01*
X107505683Y-91111630D01*
X107383630Y-91233683D01*
X107282191Y-91373305D01*
X107203831Y-91527092D01*
X107150499Y-91691234D01*
X107123500Y-91861698D01*
X78500500Y-91861698D01*
X78500500Y-89032711D01*
X80191500Y-89032711D01*
X80191500Y-89275288D01*
X80223161Y-89515785D01*
X80285947Y-89750104D01*
X80378773Y-89974205D01*
X80378777Y-89974214D01*
X80386663Y-89987872D01*
X80500064Y-90184289D01*
X80500066Y-90184292D01*
X80500067Y-90184293D01*
X80647733Y-90376736D01*
X80647739Y-90376743D01*
X80819256Y-90548260D01*
X80819262Y-90548265D01*
X81011711Y-90695936D01*
X81221788Y-90817224D01*
X81445900Y-90910054D01*
X81680211Y-90972838D01*
X81860586Y-90996584D01*
X81920711Y-91004500D01*
X81920712Y-91004500D01*
X82163289Y-91004500D01*
X82211388Y-90998167D01*
X82403789Y-90972838D01*
X82638100Y-90910054D01*
X82862212Y-90817224D01*
X83072289Y-90695936D01*
X83264738Y-90548265D01*
X83436265Y-90376738D01*
X83463361Y-90341426D01*
X110180125Y-90341426D01*
X110185571Y-90345383D01*
X110339277Y-90423701D01*
X110503352Y-90477013D01*
X110673738Y-90504000D01*
X110846262Y-90504000D01*
X111016647Y-90477013D01*
X111180722Y-90423701D01*
X111334423Y-90345385D01*
X111339872Y-90341425D01*
X111338320Y-90339873D01*
X125757978Y-90339873D01*
X125763996Y-90344247D01*
X125918128Y-90422781D01*
X126082653Y-90476239D01*
X126253502Y-90503300D01*
X126426498Y-90503300D01*
X126597346Y-90476239D01*
X126761871Y-90422781D01*
X126916002Y-90344247D01*
X126922021Y-90339873D01*
X126340001Y-89757853D01*
X126340000Y-89757853D01*
X125757978Y-90339873D01*
X111338320Y-90339873D01*
X110760001Y-89761554D01*
X110760000Y-89761554D01*
X110180125Y-90341426D01*
X83463361Y-90341426D01*
X83583936Y-90184289D01*
X83705224Y-89974212D01*
X83798054Y-89750100D01*
X83860838Y-89515789D01*
X83886385Y-89321737D01*
X109664000Y-89321737D01*
X109664000Y-89494262D01*
X109690986Y-89664647D01*
X109744300Y-89828727D01*
X109822613Y-89982423D01*
X109822623Y-89982438D01*
X109826570Y-89987872D01*
X109826573Y-89987872D01*
X110406446Y-89408000D01*
X110363659Y-89365213D01*
X110435000Y-89365213D01*
X110435000Y-89450787D01*
X110457149Y-89533445D01*
X110499936Y-89607554D01*
X110560446Y-89668064D01*
X110634555Y-89710851D01*
X110717213Y-89733000D01*
X110802787Y-89733000D01*
X110885445Y-89710851D01*
X110959554Y-89668064D01*
X111020064Y-89607554D01*
X111062851Y-89533445D01*
X111085000Y-89450787D01*
X111085000Y-89407999D01*
X111113554Y-89407999D01*
X111113554Y-89408000D01*
X111693425Y-89987872D01*
X111697385Y-89982423D01*
X111775701Y-89828722D01*
X111829013Y-89664647D01*
X111856000Y-89494262D01*
X111856000Y-89321744D01*
X111855998Y-89321731D01*
X111855376Y-89317801D01*
X125241000Y-89317801D01*
X125241000Y-89490798D01*
X125268060Y-89661646D01*
X125321518Y-89826171D01*
X125400052Y-89980303D01*
X125400056Y-89980309D01*
X125404423Y-89986320D01*
X125404425Y-89986320D01*
X125986446Y-89404300D01*
X125986446Y-89404299D01*
X125941027Y-89358880D01*
X125995000Y-89358880D01*
X125995000Y-89449720D01*
X126018511Y-89537465D01*
X126063931Y-89616135D01*
X126128165Y-89680369D01*
X126206835Y-89725789D01*
X126294580Y-89749300D01*
X126385420Y-89749300D01*
X126473165Y-89725789D01*
X126551835Y-89680369D01*
X126616069Y-89616135D01*
X126661489Y-89537465D01*
X126685000Y-89449720D01*
X126685000Y-89404299D01*
X126693553Y-89404299D01*
X126693553Y-89404300D01*
X127275573Y-89986320D01*
X127279947Y-89980302D01*
X127358481Y-89826171D01*
X127411939Y-89661646D01*
X127439000Y-89490798D01*
X127439000Y-89317801D01*
X127411939Y-89146953D01*
X127411939Y-89146952D01*
X127385952Y-89066971D01*
X127374820Y-89032711D01*
X142167500Y-89032711D01*
X142167500Y-89275288D01*
X142199161Y-89515785D01*
X142261947Y-89750104D01*
X142354773Y-89974205D01*
X142354777Y-89974214D01*
X142362663Y-89987872D01*
X142476064Y-90184289D01*
X142476066Y-90184292D01*
X142476067Y-90184293D01*
X142623733Y-90376736D01*
X142623739Y-90376743D01*
X142795256Y-90548260D01*
X142795262Y-90548265D01*
X142987711Y-90695936D01*
X143197788Y-90817224D01*
X143421900Y-90910054D01*
X143656211Y-90972838D01*
X143836586Y-90996584D01*
X143896711Y-91004500D01*
X143896712Y-91004500D01*
X144139289Y-91004500D01*
X144187388Y-90998167D01*
X144379789Y-90972838D01*
X144614100Y-90910054D01*
X144838212Y-90817224D01*
X145048289Y-90695936D01*
X145240738Y-90548265D01*
X145412265Y-90376738D01*
X145559936Y-90184289D01*
X145681224Y-89974212D01*
X145774054Y-89750100D01*
X145836838Y-89515789D01*
X145868500Y-89275288D01*
X145868500Y-89032712D01*
X145862518Y-88987277D01*
X145860584Y-88972586D01*
X145836838Y-88792211D01*
X145774054Y-88557900D01*
X145681224Y-88333788D01*
X145559936Y-88123711D01*
X145412265Y-87931262D01*
X145412260Y-87931256D01*
X145240743Y-87759739D01*
X145240736Y-87759733D01*
X145048293Y-87612067D01*
X145048292Y-87612066D01*
X145048289Y-87612064D01*
X144838212Y-87490776D01*
X144838205Y-87490773D01*
X144614104Y-87397947D01*
X144379785Y-87335161D01*
X144139289Y-87303500D01*
X144139288Y-87303500D01*
X143896712Y-87303500D01*
X143896711Y-87303500D01*
X143656214Y-87335161D01*
X143421895Y-87397947D01*
X143197794Y-87490773D01*
X143197785Y-87490777D01*
X142987706Y-87612067D01*
X142795263Y-87759733D01*
X142795256Y-87759739D01*
X142623739Y-87931256D01*
X142623733Y-87931263D01*
X142476067Y-88123706D01*
X142354777Y-88333785D01*
X142354773Y-88333794D01*
X142261947Y-88557895D01*
X142199161Y-88792214D01*
X142167500Y-89032711D01*
X127374820Y-89032711D01*
X127358481Y-88982426D01*
X127279947Y-88828296D01*
X127275573Y-88822278D01*
X126693553Y-89404299D01*
X126685000Y-89404299D01*
X126685000Y-89358880D01*
X126661489Y-89271135D01*
X126616069Y-89192465D01*
X126551835Y-89128231D01*
X126473165Y-89082811D01*
X126385420Y-89059300D01*
X126294580Y-89059300D01*
X126206835Y-89082811D01*
X126128165Y-89128231D01*
X126063931Y-89192465D01*
X126018511Y-89271135D01*
X125995000Y-89358880D01*
X125941027Y-89358880D01*
X125404425Y-88822278D01*
X125404423Y-88822278D01*
X125400053Y-88828293D01*
X125400052Y-88828295D01*
X125321518Y-88982428D01*
X125268060Y-89146953D01*
X125241000Y-89317801D01*
X111855376Y-89317801D01*
X111829013Y-89151352D01*
X111775701Y-88987277D01*
X111697383Y-88833571D01*
X111693426Y-88828125D01*
X111113554Y-89407999D01*
X111085000Y-89407999D01*
X111085000Y-89365213D01*
X111062851Y-89282555D01*
X111020064Y-89208446D01*
X110959554Y-89147936D01*
X110885445Y-89105149D01*
X110802787Y-89083000D01*
X110717213Y-89083000D01*
X110634555Y-89105149D01*
X110560446Y-89147936D01*
X110499936Y-89208446D01*
X110457149Y-89282555D01*
X110435000Y-89365213D01*
X110363659Y-89365213D01*
X109826572Y-88828126D01*
X109822616Y-88833571D01*
X109822614Y-88833575D01*
X109744298Y-88987277D01*
X109690986Y-89151352D01*
X109664000Y-89321737D01*
X83886385Y-89321737D01*
X83892500Y-89275288D01*
X83892500Y-89032712D01*
X83886518Y-88987277D01*
X83884584Y-88972586D01*
X83860838Y-88792211D01*
X83798054Y-88557900D01*
X83763538Y-88474572D01*
X110180126Y-88474572D01*
X110760000Y-89054446D01*
X110760001Y-89054446D01*
X111339873Y-88474572D01*
X111339873Y-88474571D01*
X111334438Y-88470623D01*
X111334423Y-88470613D01*
X111330714Y-88468723D01*
X125757978Y-88468723D01*
X125757978Y-88468725D01*
X126340000Y-89050746D01*
X126340001Y-89050746D01*
X126922020Y-88468725D01*
X126922020Y-88468723D01*
X126916009Y-88464356D01*
X126916003Y-88464352D01*
X126761871Y-88385818D01*
X126597346Y-88332360D01*
X126426498Y-88305300D01*
X126253502Y-88305300D01*
X126082653Y-88332360D01*
X125918128Y-88385818D01*
X125763995Y-88464352D01*
X125763993Y-88464353D01*
X125757978Y-88468723D01*
X111330714Y-88468723D01*
X111180727Y-88392300D01*
X111016647Y-88338986D01*
X110846262Y-88312000D01*
X110673738Y-88312000D01*
X110503352Y-88338986D01*
X110339277Y-88392298D01*
X110185575Y-88470614D01*
X110185571Y-88470616D01*
X110180126Y-88474572D01*
X83763538Y-88474572D01*
X83705224Y-88333788D01*
X83583936Y-88123711D01*
X83436265Y-87931262D01*
X83436260Y-87931256D01*
X83264743Y-87759739D01*
X83264736Y-87759733D01*
X83072293Y-87612067D01*
X83072292Y-87612066D01*
X83072289Y-87612064D01*
X82862212Y-87490776D01*
X82862205Y-87490773D01*
X82638104Y-87397947D01*
X82403785Y-87335161D01*
X82163289Y-87303500D01*
X82163288Y-87303500D01*
X81920712Y-87303500D01*
X81920711Y-87303500D01*
X81680214Y-87335161D01*
X81445895Y-87397947D01*
X81221794Y-87490773D01*
X81221785Y-87490777D01*
X81011706Y-87612067D01*
X80819263Y-87759733D01*
X80819256Y-87759739D01*
X80647739Y-87931256D01*
X80647733Y-87931263D01*
X80500067Y-88123706D01*
X80378777Y-88333785D01*
X80378773Y-88333794D01*
X80285947Y-88557895D01*
X80223161Y-88792214D01*
X80191500Y-89032711D01*
X78500500Y-89032711D01*
X78500500Y-85721492D01*
X78520185Y-85654453D01*
X78572989Y-85608698D01*
X78624039Y-85597494D01*
X105103227Y-85500501D01*
X105103681Y-85500500D01*
X147457500Y-85500500D01*
X147524539Y-85520185D01*
G37*
%TD.AperFunction*%
%TD*%
M02*
